<svg width="1920" height="1080" viewBox="0 0 1920 1080" fill="none" xmlns="http://www.w3.org/2000/svg">
<rect width="1920" height="1080" fill="black"/>
<path d="M85.7637 211.822L71.8937 211.822L71.8937 210.112L77.8217 210.112L77.8217 205.666L71.8937 205.666L71.8937 203.956L85.7637 203.956L85.7637 205.666L79.3797 205.666L79.3797 210.112L85.7637 210.112L85.7637 211.822ZM85.9537 196.496C85.9537 197.332 85.7953 198.054 85.4787 198.662C85.162 199.258 84.706 199.72 84.1107 200.049C83.5027 200.366 82.787 200.524 81.9637 200.524L75.6937 200.524C74.8577 200.524 74.142 200.366 73.5467 200.049C72.9513 199.72 72.4953 199.258 72.1787 198.662C71.862 198.054 71.7037 197.332 71.7037 196.496C71.7037 195.66 71.862 194.945 72.1787 194.349C72.4953 193.741 72.9513 193.279 73.5467 192.962C74.142 192.633 74.8513 192.468 75.6747 192.468L81.9637 192.468C82.787 192.468 83.5027 192.633 84.1107 192.962C84.706 193.279 85.162 193.741 85.4787 194.349C85.7953 194.945 85.9537 195.66 85.9537 196.496ZM84.4147 196.496C84.4147 195.749 84.2057 195.179 83.7877 194.786C83.357 194.381 82.749 194.178 81.9637 194.178L75.6937 194.178C74.9083 194.178 74.3067 194.381 73.8887 194.786C73.458 195.179 73.2427 195.749 73.2427 196.496C73.2427 197.231 73.458 197.801 73.8887 198.206C74.3067 198.612 74.9083 198.814 75.6937 198.814L81.9637 198.814C82.749 198.814 83.357 198.612 83.7877 198.206C84.2057 197.801 84.4147 197.231 84.4147 196.496ZM85.7637 189.36L71.8937 189.36L71.8937 187.118L76.3777 185.674C76.783 185.534 77.1883 185.408 77.5937 185.294C77.9863 185.18 78.2903 185.097 78.5057 185.047C78.2903 184.983 77.9863 184.901 77.5937 184.8C77.1883 184.698 76.7767 184.584 76.3587 184.458L71.8937 183.09L71.8937 180.848L85.7637 180.848L85.7637 182.52L80.7287 182.52C80.1713 182.52 79.538 182.501 78.8287 182.463C78.1193 182.425 77.3973 182.374 76.6627 182.311C75.9153 182.247 75.206 182.184 74.5347 182.121C73.8507 182.045 73.2553 181.981 72.7487 181.931L79.6837 184.173L79.6837 185.978L72.7487 188.239C73.2427 188.175 73.819 188.112 74.4777 188.049C75.1237 187.985 75.814 187.928 76.5487 187.878C77.2707 187.827 77.9927 187.783 78.7147 187.745C79.4367 187.707 80.108 187.688 80.7287 187.688L85.7637 187.688L85.7637 189.36ZM85.7637 177.511L71.8937 177.511L71.8937 169.531L73.4517 169.531L73.4517 175.82L77.7457 175.82L77.7457 170.196L79.2847 170.196L79.2847 175.82L84.2057 175.82L84.2057 169.531L85.7637 169.531L85.7637 177.511Z" fill="white"/>
<path d="M86.002 437.215L72.132 437.215L72.132 432.75C72.132 431.889 72.303 431.141 72.645 430.508C72.9743 429.875 73.443 429.387 74.051 429.045C74.659 428.69 75.381 428.513 76.217 428.513C77.0403 428.513 77.7623 428.69 78.383 429.045C78.991 429.387 79.466 429.875 79.808 430.508C80.1373 431.141 80.302 431.889 80.302 432.75L80.302 435.505L86.002 435.505L86.002 437.215ZM78.763 435.505L78.763 432.75C78.763 432.003 78.535 431.407 78.079 430.964C77.6103 430.508 76.9896 430.28 76.217 430.28C75.4316 430.28 74.811 430.508 74.355 430.964C73.899 431.407 73.671 432.003 73.671 432.75L73.671 435.505L78.763 435.505ZM86.002 425.822L72.132 425.822L72.132 421.528C72.132 420.705 72.303 419.983 72.645 419.362C72.9743 418.742 73.4366 418.26 74.032 417.918C74.6273 417.576 75.324 417.405 76.122 417.405C77.0593 417.405 77.8636 417.652 78.535 418.146C79.2063 418.628 79.6686 419.286 79.922 420.122L86.002 417.215L86.002 419.229L80.112 421.889L80.112 424.112L86.002 424.112L86.002 425.822ZM78.573 424.112L78.573 421.528C78.573 420.819 78.3513 420.249 77.908 419.818C77.452 419.388 76.8566 419.172 76.122 419.172C75.3746 419.172 74.7793 419.388 74.336 419.818C73.8926 420.249 73.671 420.819 73.671 421.528L73.671 424.112L78.573 424.112ZM86.192 410.478C86.192 411.314 86.0336 412.036 85.717 412.644C85.4003 413.239 84.9443 413.702 84.349 414.031C83.741 414.348 83.0253 414.506 82.202 414.506L75.932 414.506C75.096 414.506 74.3803 414.348 73.785 414.031C73.1896 413.702 72.7336 413.239 72.417 412.644C72.1003 412.036 71.942 411.314 71.942 410.478C71.942 409.642 72.1003 408.926 72.417 408.331C72.7336 407.723 73.1896 407.261 73.785 406.944C74.3803 406.615 75.0896 406.45 75.913 406.45L82.202 406.45C83.0253 406.45 83.741 406.615 84.349 406.944C84.9443 407.261 85.4003 407.723 85.717 408.331C86.0336 408.926 86.192 409.642 86.192 410.478ZM84.653 410.478C84.653 409.731 84.444 409.161 84.026 408.768C83.5953 408.363 82.9873 408.16 82.202 408.16L75.932 408.16C75.1466 408.16 74.545 408.363 74.127 408.768C73.6963 409.161 73.4809 409.731 73.4809 410.478C73.481 411.213 73.6963 411.783 74.127 412.188C74.545 412.593 75.1466 412.796 75.932 412.796L82.202 412.796C82.9873 412.796 83.5953 412.593 84.026 412.188C84.444 411.783 84.653 411.213 84.653 410.478ZM86.192 399.655C86.192 400.985 85.8183 402.03 85.071 402.79C84.3236 403.55 83.304 403.93 82.012 403.93L82.012 402.22C82.8606 402.22 83.5193 401.999 83.988 401.555C84.444 401.099 84.672 400.466 84.672 399.655C84.672 398.845 84.444 398.218 83.988 397.774C83.5193 397.318 82.8606 397.09 82.0119 397.09L73.69 397.09L73.69 400.415L72.1319 400.415L72.1319 395.38L82.0119 395.38C83.3039 395.38 84.3236 395.767 85.071 396.539C85.8183 397.299 86.192 398.338 86.192 399.655ZM86.0019 391.493L72.1319 391.493L72.1319 383.513L73.6899 383.513L73.6899 389.802L77.9839 389.802L77.9839 384.178L79.5229 384.178L79.5229 389.802L84.4439 389.802L84.4439 383.513L86.0019 383.513L86.0019 391.493ZM86.1919 376.224C86.1919 377.06 86.0336 377.788 85.7169 378.409C85.4003 379.017 84.9443 379.492 84.3489 379.834C83.7409 380.163 83.0253 380.328 82.2019 380.328L75.9319 380.328C75.0959 380.328 74.3803 380.163 73.7849 379.834C73.1896 379.492 72.7336 379.017 72.4169 378.409C72.1003 377.788 71.9419 377.06 71.9419 376.224C71.9419 375.388 72.1066 374.666 72.4359 374.058C72.7526 373.45 73.2086 372.981 73.8039 372.652C74.3993 372.323 75.1086 372.158 75.9319 372.158L75.9319 373.868C75.1466 373.868 74.5449 374.077 74.1269 374.495C73.6963 374.9 73.4809 375.477 73.4809 376.224C73.4809 376.971 73.6899 377.56 74.1079 377.991C74.5259 378.409 75.1276 378.618 75.9129 378.618L82.2019 378.618C82.9873 378.618 83.5953 378.409 84.0259 377.991C84.4439 377.56 84.6529 376.971 84.6529 376.224C84.6529 375.477 84.4439 374.9 84.0259 374.495C83.5953 374.077 82.9873 373.868 82.2019 373.868L82.2019 372.158C83.0126 372.158 83.7219 372.323 84.3299 372.652C84.9253 372.981 85.3876 373.45 85.7169 374.058C86.0336 374.666 86.1919 375.388 86.1919 376.224ZM86.0019 365.763L73.6709 365.763L73.6709 369.563L72.1129 369.563L72.1129 360.253L73.6709 360.253L73.6709 364.053L86.0019 364.053L86.0019 365.763ZM86.1919 353.439C86.1919 354.351 86.0399 355.136 85.7359 355.795C85.4319 356.441 84.9949 356.941 84.4249 357.296C83.8549 357.651 83.1773 357.834 82.3919 357.847L82.3919 356.137C83.0886 356.137 83.6396 355.903 84.0449 355.434C84.4503 354.953 84.6529 354.288 84.6529 353.439C84.6529 352.641 84.4566 352.02 84.0639 351.577C83.6713 351.121 83.1266 350.893 82.4299 350.893C81.8726 350.893 81.3849 351.045 80.9669 351.349C80.5489 351.64 80.2576 352.065 80.0929 352.622L79.5039 354.503C79.2126 355.453 78.7249 356.188 78.0409 356.707C77.3569 357.214 76.5526 357.467 75.6279 357.467C74.8806 357.467 74.2346 357.302 73.6899 356.973C73.1326 356.631 72.7019 356.156 72.3979 355.548C72.0813 354.94 71.9229 354.224 71.9229 353.401C71.9229 352.185 72.2649 351.21 72.9489 350.475C73.6203 349.74 74.5196 349.367 75.6469 349.354L75.6469 351.064C74.9629 351.064 74.4309 351.273 74.0509 351.691C73.6583 352.096 73.4619 352.673 73.4619 353.42C73.4619 354.155 73.6393 354.731 73.9939 355.149C74.3486 355.554 74.8426 355.757 75.4759 355.757C76.0459 355.757 76.5399 355.605 76.9579 355.301C77.3759 354.997 77.6736 354.56 77.8509 353.99L78.4589 352.09C78.7503 351.165 79.2443 350.45 79.9409 349.943C80.6376 349.436 81.4546 349.183 82.3919 349.183C83.1519 349.183 83.8169 349.36 84.3869 349.715C84.9569 350.07 85.4003 350.57 85.7169 351.216C86.0336 351.849 86.1919 352.59 86.1919 353.439Z" fill="white"/>
<path d="M87.002 677.013L73.132 673.403L73.132 671.104L87.002 667.513L87.002 669.242L83.316 670.154L83.316 674.353L87.002 675.265L87.002 677.013ZM81.872 674.011L81.872 670.515L77.597 671.579C76.7863 671.782 76.1086 671.94 75.564 672.054C75.0193 672.168 74.6646 672.238 74.5 672.263C74.6646 672.288 75.0193 672.358 75.564 672.472C76.1086 672.586 76.78 672.744 77.578 672.947L81.872 674.011ZM87.002 664.803L73.132 664.803L73.132 660.87C73.132 659.604 73.4486 658.616 74.082 657.906C74.7153 657.184 75.5956 656.823 76.723 656.823C77.3563 656.823 77.9073 656.956 78.376 657.222C78.8446 657.488 79.2056 657.868 79.459 658.362C79.7123 658.844 79.8326 659.426 79.82 660.11L79.535 660.11C79.5223 659.376 79.6616 658.742 79.953 658.21C80.2443 657.666 80.6623 657.248 81.207 656.956C81.7516 656.652 82.3976 656.5 83.145 656.5C83.9303 656.5 84.6143 656.665 85.197 656.994C85.7796 657.324 86.2293 657.792 86.546 658.4C86.85 659.008 87.002 659.737 87.002 660.585L87.002 664.803ZM85.463 663.131L85.463 660.775C85.463 659.977 85.254 659.35 84.836 658.894C84.4053 658.426 83.8226 658.191 83.088 658.191C82.328 658.191 81.7136 658.426 81.245 658.894C80.7636 659.35 80.523 659.977 80.523 660.775L80.523 663.131L85.463 663.131ZM79.041 663.131L79.041 660.889C79.041 660.155 78.8446 659.578 78.452 659.16C78.0593 658.73 77.5273 658.514 76.856 658.514C76.1846 658.514 75.6526 658.723 75.26 659.141C74.8673 659.559 74.671 660.136 74.671 660.87L74.671 663.131L79.041 663.131ZM87.192 649.478C87.192 650.314 87.0336 651.036 86.717 651.644C86.4003 652.239 85.9443 652.702 85.349 653.031C84.741 653.348 84.0253 653.506 83.202 653.506L76.932 653.506C76.096 653.506 75.3803 653.348 74.785 653.031C74.1896 652.702 73.7336 652.239 73.417 651.644C73.1003 651.036 72.942 650.314 72.942 649.478C72.942 648.642 73.1003 647.926 73.417 647.331C73.7336 646.723 74.1896 646.261 74.785 645.944C75.3803 645.615 76.0896 645.45 76.913 645.45L83.202 645.45C84.0253 645.45 84.741 645.615 85.349 645.944C85.9443 646.261 86.4003 646.723 86.717 647.331C87.0336 647.926 87.192 648.642 87.192 649.478ZM85.653 649.478C85.653 648.731 85.444 648.161 85.026 647.768C84.5953 647.363 83.9873 647.16 83.202 647.16L76.932 647.16C76.1466 647.16 75.545 647.363 75.127 647.768C74.6963 648.161 74.4809 648.731 74.4809 649.478C74.481 650.213 74.6963 650.783 75.127 651.188C75.545 651.593 76.1466 651.796 76.932 651.796L83.202 651.796C83.9873 651.796 84.5953 651.593 85.026 651.188C85.444 650.783 85.653 650.213 85.653 649.478ZM87.192 638.085C87.192 639.377 86.8373 640.365 86.128 641.049C85.406 641.733 84.4306 642.075 83.202 642.075L73.132 642.075L73.1319 640.365L83.202 640.365C83.962 640.365 84.5636 640.182 85.007 639.814C85.4503 639.434 85.672 638.858 85.672 638.085C85.672 637.325 85.4503 636.755 85.007 636.375C84.5636 635.995 83.962 635.805 83.202 635.805L73.1319 635.805L73.1319 634.095L83.202 634.095C84.4433 634.095 85.4186 634.437 86.128 635.121C86.8373 635.793 87.192 636.781 87.192 638.085ZM87.0019 627.548L74.6709 627.548L74.6709 631.348L73.1129 631.348L73.1129 622.038L74.6709 622.038L74.6709 625.838L87.0019 625.838L87.0019 627.548ZM87.0019 608.164L73.1319 608.164L73.1319 605.922L77.6159 604.478C78.0213 604.338 78.4266 604.212 78.8319 604.098C79.2246 603.984 79.5286 603.901 79.7439 603.851C79.5286 603.787 79.2246 603.705 78.8319 603.604C78.4266 603.502 78.0149 603.388 77.5969 603.262L73.1319 601.894L73.1319 599.652L87.0019 599.652L87.0019 601.324L81.9669 601.324C81.4096 601.324 80.7763 601.305 80.0669 601.267C79.3576 601.229 78.6356 601.178 77.9009 601.115C77.1536 601.051 76.4443 600.988 75.7729 600.925C75.0889 600.849 74.4936 600.785 73.9869 600.735L80.9219 602.977L80.9219 604.782L73.9869 607.043C74.4809 606.979 75.0573 606.916 75.7159 606.853C76.3619 606.789 77.0523 606.732 77.7869 606.682C78.5089 606.631 79.2309 606.587 79.9529 606.549C80.6749 606.511 81.3463 606.492 81.9669 606.492L87.0019 606.492L87.0019 608.164ZM87.0019 596.315L73.1319 596.315L73.1319 588.335L74.6899 588.335L74.6899 594.624L78.9839 594.624L78.9839 589L80.5229 589L80.5229 594.624L85.4439 594.624L85.4439 588.335L87.0019 588.335L87.0019 596.315Z" fill="white"/>
<path d="M88.192 895.831C88.192 896.667 88.0336 897.395 87.717 898.016C87.4003 898.624 86.9443 899.099 86.349 899.441C85.741 899.77 85.0253 899.935 84.202 899.935L77.932 899.935C77.096 899.935 76.3803 899.77 75.785 899.441C75.1896 899.099 74.7336 898.624 74.417 898.016C74.1003 897.395 73.942 896.667 73.942 895.831C73.942 894.995 74.1066 894.273 74.436 893.665C74.7526 893.057 75.2086 892.588 75.804 892.259C76.3993 891.929 77.1086 891.765 77.932 891.765L77.932 893.475C77.1466 893.475 76.545 893.684 76.127 894.102C75.6963 894.507 75.481 895.083 75.481 895.831C75.481 896.578 75.69 897.167 76.108 897.598C76.526 898.016 77.1276 898.225 77.913 898.225L84.202 898.225C84.9873 898.225 85.5953 898.016 86.026 897.598C86.444 897.167 86.653 896.578 86.653 895.831C86.653 895.083 86.444 894.507 86.026 894.102C85.5953 893.684 84.9873 893.475 84.202 893.475L84.202 891.765C85.0126 891.765 85.722 891.929 86.33 892.259C86.9253 892.588 87.3876 893.057 87.717 893.665C88.0336 894.273 88.192 894.995 88.192 895.831ZM88.192 884.514C88.192 885.35 88.0336 886.072 87.717 886.68C87.4003 887.276 86.9443 887.738 86.349 888.067C85.741 888.384 85.0253 888.542 84.202 888.542L77.932 888.542C77.096 888.542 76.3803 888.384 75.785 888.067C75.1896 887.738 74.7336 887.276 74.417 886.68C74.1003 886.072 73.942 885.35 73.942 884.514C73.942 883.678 74.1003 882.963 74.417 882.367C74.7336 881.759 75.1896 881.297 75.785 880.98C76.3803 880.651 77.0896 880.486 77.913 880.486L84.202 880.486C85.0253 880.486 85.741 880.651 86.349 880.98C86.9443 881.297 87.4003 881.759 87.717 882.367C88.0336 882.963 88.192 883.678 88.192 884.514ZM86.653 884.514C86.653 883.767 86.444 883.197 86.026 882.804C85.5953 882.399 84.9873 882.196 84.202 882.196L77.932 882.196C77.1466 882.196 76.545 882.399 76.127 882.804C75.6963 883.197 75.481 883.767 75.481 884.514C75.481 885.249 75.6963 885.819 76.127 886.224C76.545 886.63 77.1466 886.832 77.932 886.832L84.202 886.832C84.9873 886.832 85.5953 886.63 86.026 886.224C86.444 885.819 86.653 885.249 86.653 884.514ZM88.002 877.112L74.132 877.112L74.132 874.832L86.007 870.595C85.6903 870.62 85.304 870.652 84.848 870.69C84.3793 870.715 83.8916 870.74 83.385 870.766C82.8656 870.778 82.378 870.785 81.922 870.785L74.132 870.785L74.132 869.132L88.002 869.132L88.002 871.412L76.127 875.63C76.431 875.604 76.8173 875.579 77.286 875.554C77.742 875.528 78.2296 875.509 78.749 875.497C79.2556 875.471 79.7433 875.459 80.212 875.459L88.002 875.459L88.002 877.112ZM88.002 862.584L75.6709 862.584L75.6709 866.384L74.113 866.384L74.113 857.074L75.6709 857.074L75.6709 860.874L88.002 860.874L88.002 862.584ZM88.002 855.086L74.1319 851.476L74.1319 849.177L88.0019 845.586L88.0019 847.315L84.3159 848.227L84.3159 852.426L88.002 853.338L88.002 855.086ZM82.8719 852.084L82.8719 848.588L78.5969 849.652C77.7863 849.855 77.1086 850.013 76.5639 850.127C76.0193 850.241 75.6646 850.311 75.4999 850.336C75.6646 850.362 76.0193 850.431 76.5639 850.545C77.1086 850.659 77.7799 850.818 78.5779 851.02L82.8719 852.084ZM88.1919 838.868C88.1919 839.704 88.0336 840.432 87.7169 841.053C87.4003 841.661 86.9443 842.136 86.3489 842.478C85.7409 842.807 85.0253 842.972 84.2019 842.972L77.9319 842.972C77.0959 842.972 76.3803 842.807 75.7849 842.478C75.1896 842.136 74.7336 841.661 74.4169 841.053C74.1003 840.432 73.9419 839.704 73.9419 838.868C73.9419 838.032 74.1066 837.31 74.4359 836.702C74.7526 836.094 75.2086 835.625 75.8039 835.296C76.3993 834.967 77.1086 834.802 77.9319 834.802L77.9319 836.512C77.1466 836.512 76.5449 836.721 76.1269 837.139C75.6963 837.544 75.4809 838.121 75.4809 838.868C75.4809 839.615 75.6899 840.204 76.1079 840.635C76.5259 841.053 77.1276 841.262 77.9129 841.262L84.2019 841.262C84.9873 841.262 85.5953 841.053 86.0259 840.635C86.4439 840.204 86.6529 839.615 86.6529 838.868C86.6529 838.121 86.4439 837.544 86.0259 837.139C85.5953 836.721 84.9873 836.512 84.2019 836.512L84.2019 834.802C85.0126 834.802 85.7219 834.967 86.3299 835.296C86.9253 835.625 87.3876 836.094 87.7169 836.702C88.0336 837.31 88.1919 838.032 88.1919 838.868ZM88.0019 828.406L75.6709 828.406L75.6709 832.206L74.1129 832.206L74.1129 822.896L75.6709 822.896L75.6709 826.696L88.0019 826.696L88.0019 828.406Z" fill="white"/>
<path d="M724.999 508C724.171 508 723.499 508.672 723.499 509.5C723.499 510.328 724.171 511 724.999 511L724.999 508ZM799 209.5C798.171 209.5 797.5 210.172 797.5 211C797.5 211.828 798.171 212.5 799 212.5L799 209.5ZM1186 508L724.999 508L724.999 511L1186 511L1186 508ZM1122 209.5L812.5 209.5L812.5 212.5L1122 212.5L1122 209.5ZM812.5 209.5L799 209.5L799 212.5L812.5 212.5L812.5 209.5Z" fill="white"/>
<path d="M724.37 540V523.5H725.69V525.75H725.87L725.81 526.17C725.79 525.27 726.03 524.55 726.53 524.01C727.03 523.47 727.72 523.2 728.6 523.2C729.46 523.2 730.15 523.46 730.67 523.98C731.21 524.5 731.54 525.23 731.66 526.17L731.54 525.75H731.78L731.72 526.17C731.7 525.27 731.93 524.55 732.41 524.01C732.91 523.47 733.6 523.2 734.48 523.2C735.48 523.2 736.25 523.55 736.79 524.25C737.35 524.93 737.63 525.87 737.63 527.07V540H736.16V527.25C736.16 526.39 735.97 525.71 735.59 525.21C735.21 524.71 734.69 524.46 734.03 524.46C733.33 524.46 732.77 524.72 732.35 525.24C731.93 525.74 731.72 526.41 731.72 527.25V540H730.28V527.25C730.28 526.39 730.09 525.71 729.71 525.21C729.33 524.71 728.81 524.46 728.15 524.46C727.49 524.46 726.95 524.71 726.53 525.21C726.11 525.71 725.88 526.39 725.84 527.25V540H724.37ZM749.018 540.3C747.798 540.3 746.748 540.06 745.868 539.58C744.988 539.08 744.308 538.38 743.828 537.48C743.368 536.58 743.138 535.52 743.138 534.3V529.2C743.138 527.98 743.368 526.93 743.828 526.05C744.308 525.15 744.988 524.45 745.868 523.95C746.748 523.45 747.798 523.2 749.018 523.2C750.238 523.2 751.278 523.45 752.138 523.95C752.998 524.45 753.658 525.15 754.118 526.05C754.598 526.93 754.838 527.98 754.838 529.2V532.05H744.638V534.3C744.638 535.74 745.018 536.88 745.778 537.72C746.538 538.56 747.618 538.98 749.018 538.98C750.138 538.98 751.058 538.71 751.778 538.17C752.518 537.63 753.028 536.89 753.308 535.95H754.808C754.508 537.29 753.848 538.35 752.828 539.13C751.828 539.91 750.558 540.3 749.018 540.3ZM753.338 531.03V529.2C753.338 527.76 752.958 526.62 752.198 525.78C751.458 524.94 750.398 524.52 749.018 524.52C747.618 524.52 746.538 524.94 745.778 525.78C745.018 526.6 744.638 527.74 744.638 529.2V530.76H753.668L753.338 531.03ZM766.137 540.3C765.137 540.3 764.247 540.12 763.467 539.76C762.707 539.38 762.087 538.86 761.607 538.2C761.147 537.54 760.867 536.79 760.767 535.95H762.267C762.427 536.81 762.847 537.53 763.527 538.11C764.227 538.67 765.097 538.95 766.137 538.95H768.147C769.247 538.95 770.117 538.67 770.757 538.11C771.397 537.53 771.717 536.76 771.717 535.8C771.717 534.94 771.457 534.21 770.937 533.61C770.437 533.01 769.747 532.65 768.867 532.53L765.657 532.08C764.257 531.88 763.167 531.4 762.387 530.64C761.607 529.88 761.217 528.89 761.217 527.67C761.217 526.31 761.687 525.23 762.627 524.43C763.587 523.61 764.857 523.2 766.437 523.2H767.697C769.197 523.2 770.417 523.57 771.357 524.31C772.317 525.05 772.867 526.03 773.007 527.25H771.507C771.387 526.47 770.987 525.83 770.307 525.33C769.627 524.81 768.757 524.55 767.697 524.55H766.437C765.317 524.55 764.417 524.83 763.737 525.39C763.077 525.95 762.747 526.7 762.747 527.64C762.747 528.46 763.017 529.12 763.557 529.62C764.097 530.12 764.877 530.45 765.897 530.61L769.047 531.06C770.307 531.24 771.307 531.74 772.047 532.56C772.807 533.36 773.187 534.37 773.187 535.59C773.187 537.01 772.727 538.15 771.807 539.01C770.907 539.87 769.687 540.3 768.147 540.3H766.137ZM784.125 540.3C783.125 540.3 782.235 540.12 781.455 539.76C780.695 539.38 780.075 538.86 779.595 538.2C779.135 537.54 778.855 536.79 778.755 535.95H780.255C780.415 536.81 780.835 537.53 781.515 538.11C782.215 538.67 783.085 538.95 784.125 538.95H786.135C787.235 538.95 788.105 538.67 788.745 538.11C789.385 537.53 789.705 536.76 789.705 535.8C789.705 534.94 789.445 534.21 788.925 533.61C788.425 533.01 787.735 532.65 786.855 532.53L783.645 532.08C782.245 531.88 781.155 531.4 780.375 530.64C779.595 529.88 779.205 528.89 779.205 527.67C779.205 526.31 779.675 525.23 780.615 524.43C781.575 523.61 782.845 523.2 784.425 523.2H785.685C787.185 523.2 788.405 523.57 789.345 524.31C790.305 525.05 790.855 526.03 790.995 527.25H789.495C789.375 526.47 788.975 525.83 788.295 525.33C787.615 524.81 786.745 524.55 785.685 524.55H784.425C783.305 524.55 782.405 524.83 781.725 525.39C781.065 525.95 780.735 526.7 780.735 527.64C780.735 528.46 781.005 529.12 781.545 529.62C782.085 530.12 782.865 530.45 783.885 530.61L787.035 531.06C788.295 531.24 789.295 531.74 790.035 532.56C790.795 533.36 791.175 534.37 791.175 535.59C791.175 537.01 790.715 538.15 789.795 539.01C788.895 539.87 787.675 540.3 786.135 540.3H784.125ZM802.023 540.3C800.323 540.3 798.963 539.85 797.943 538.95C796.923 538.05 796.413 536.86 796.413 535.38C796.413 533.96 796.883 532.83 797.823 531.99C798.763 531.13 800.003 530.7 801.543 530.7H807.213V528.75C807.213 527.43 806.853 526.41 806.133 525.69C805.413 524.95 804.393 524.58 803.073 524.58C801.873 524.58 800.883 524.88 800.103 525.48C799.323 526.06 798.863 526.85 798.723 527.85H797.223C797.423 526.45 798.053 525.33 799.113 524.49C800.193 523.63 801.513 523.2 803.073 523.2C804.773 523.2 806.133 523.71 807.153 524.73C808.193 525.75 808.713 527.09 808.713 528.75V540H807.213V536.64H806.943L807.423 536.04C807.423 537.32 806.923 538.35 805.923 539.13C804.943 539.91 803.643 540.3 802.023 540.3ZM802.443 538.98C803.863 538.98 805.013 538.61 805.893 537.87C806.773 537.13 807.213 536.17 807.213 534.99V532.02H801.513C800.433 532.02 799.563 532.32 798.903 532.92C798.243 533.5 797.913 534.28 797.913 535.26C797.913 536.36 798.323 537.26 799.143 537.96C799.983 538.64 801.083 538.98 802.443 538.98ZM817.161 545.4V544.05H821.511C822.691 544.05 823.591 543.74 824.211 543.12C824.831 542.52 825.141 541.63 825.141 540.45V539.1V535.65H824.601L825.351 534.3C825.351 535.66 824.911 536.75 824.031 537.57C823.151 538.39 821.991 538.8 820.551 538.8C818.911 538.8 817.591 538.26 816.591 537.18C815.591 536.08 815.091 534.63 815.091 532.83V529.2C815.091 527.4 815.591 525.95 816.591 524.85C817.591 523.75 818.911 523.2 820.551 523.2C821.991 523.2 823.151 523.61 824.031 524.43C824.911 525.25 825.351 526.34 825.351 527.7L824.751 526.35H825.141V523.5H826.641V540.45C826.641 542.09 826.201 543.32 825.321 544.14C824.461 544.98 823.191 545.4 821.511 545.4H817.161ZM820.851 537.51C822.211 537.51 823.261 537.1 824.001 536.28C824.761 535.44 825.141 534.29 825.141 532.83V529.2C825.141 527.72 824.761 526.57 824.001 525.75C823.261 524.91 822.211 524.49 820.851 524.49C819.511 524.49 818.461 524.91 817.701 525.75C816.961 526.57 816.591 527.72 816.591 529.2V532.83C816.591 534.29 816.961 535.44 817.701 536.28C818.461 537.1 819.511 537.51 820.851 537.51ZM838.96 540.3C837.74 540.3 836.69 540.06 835.81 539.58C834.93 539.08 834.25 538.38 833.77 537.48C833.31 536.58 833.08 535.52 833.08 534.3V529.2C833.08 527.98 833.31 526.93 833.77 526.05C834.25 525.15 834.93 524.45 835.81 523.95C836.69 523.45 837.74 523.2 838.96 523.2C840.18 523.2 841.22 523.45 842.08 523.95C842.94 524.45 843.6 525.15 844.06 526.05C844.54 526.93 844.78 527.98 844.78 529.2V532.05H834.58V534.3C834.58 535.74 834.96 536.88 835.72 537.72C836.48 538.56 837.56 538.98 838.96 538.98C840.08 538.98 841 538.71 841.72 538.17C842.46 537.63 842.97 536.89 843.25 535.95H844.75C844.45 537.29 843.79 538.35 842.77 539.13C841.77 539.91 840.5 540.3 838.96 540.3ZM843.28 531.03V529.2C843.28 527.76 842.9 526.62 842.14 525.78C841.4 524.94 840.34 524.52 838.96 524.52C837.56 524.52 836.48 524.94 835.72 525.78C834.96 526.6 834.58 527.74 834.58 529.2V530.76H843.61L843.28 531.03Z" fill="white" fill-opacity="0.3"/>
<path d="M817.112 161.53C814.639 161.53 812.466 161.071 810.593 160.152C808.756 159.198 807.325 157.873 806.3 156.177C805.311 154.446 804.816 152.414 804.816 150.082V133.228C804.816 130.861 805.311 128.829 806.3 127.133C807.325 125.437 808.756 124.13 810.593 123.211C812.466 122.257 814.639 121.78 817.112 121.78C819.621 121.78 821.776 122.257 823.578 123.211C825.415 124.13 826.846 125.437 827.871 127.133C828.896 128.829 829.408 130.861 829.408 133.228H822.73C822.73 131.391 822.235 129.995 821.246 129.041C820.292 128.087 818.914 127.61 817.112 127.61C815.31 127.61 813.914 128.087 812.925 129.041C811.936 129.995 811.441 131.373 811.441 133.175V150.082C811.441 151.884 811.936 153.28 812.925 154.269C813.914 155.223 815.31 155.7 817.112 155.7C818.914 155.7 820.292 155.223 821.246 154.269C822.235 153.28 822.73 151.884 822.73 150.082H829.408C829.408 152.379 828.896 154.393 827.871 156.124C826.846 157.855 825.415 159.198 823.578 160.152C821.776 161.071 819.621 161.53 817.112 161.53ZM848.679 161.477C846.206 161.477 844.051 161.018 842.213 160.099C840.411 159.145 838.998 157.82 837.973 156.124C836.984 154.393 836.489 152.361 836.489 150.029V142.821C836.489 140.489 836.984 138.475 837.973 136.779C838.998 135.048 840.411 133.723 842.213 132.804C844.051 131.85 846.206 131.373 848.679 131.373C851.188 131.373 853.343 131.85 855.145 132.804C856.947 133.723 858.343 135.048 859.332 136.779C860.357 138.475 860.869 140.471 860.869 142.768V150.029C860.869 152.361 860.357 154.393 859.332 156.124C858.343 157.82 856.947 159.145 855.145 160.099C853.343 161.018 851.188 161.477 848.679 161.477ZM848.679 155.7C850.446 155.7 851.806 155.223 852.76 154.269C853.75 153.28 854.244 151.866 854.244 150.029V142.821C854.244 140.948 853.75 139.535 852.76 138.581C851.806 137.627 850.446 137.15 848.679 137.15C846.948 137.15 845.588 137.627 844.598 138.581C843.609 139.535 843.114 140.948 843.114 142.821V150.029C843.114 151.866 843.609 153.28 844.598 154.269C845.588 155.223 846.948 155.7 848.679 155.7ZM868.64 161V131.85H875.106V137.415H876.908L875.106 138.952C875.106 136.549 875.795 134.677 877.173 133.334C878.586 131.991 880.512 131.32 882.95 131.32C885.812 131.32 888.091 132.274 889.787 134.182C891.518 136.09 892.384 138.652 892.384 141.867V161H885.759V142.556C885.759 140.789 885.299 139.429 884.381 138.475C883.462 137.521 882.172 137.044 880.512 137.044C878.886 137.044 877.597 137.539 876.643 138.528C875.724 139.517 875.265 140.931 875.265 142.768V161H868.64ZM915.418 161C912.627 161 910.436 160.223 908.846 158.668C907.291 157.113 906.514 154.976 906.514 152.255V137.839H898.617V131.85H906.514V123.635H913.192V131.85H924.375V137.839H913.192V152.255C913.192 154.092 914.093 155.011 915.895 155.011H923.845V161H915.418ZM940.784 161.53C937.781 161.53 935.414 160.735 933.682 159.145C931.951 157.555 931.085 155.417 931.085 152.732C931.085 149.87 932.039 147.662 933.947 146.107C935.855 144.552 938.558 143.775 942.056 143.775H949.317V141.284C949.317 139.871 948.858 138.775 947.939 137.998C947.021 137.185 945.766 136.779 944.176 136.779C942.728 136.779 941.526 137.097 940.572 137.733C939.618 138.369 939.053 139.235 938.876 140.33H932.41C932.728 137.574 933.965 135.383 936.12 133.758C938.276 132.133 941.032 131.32 944.388 131.32C947.957 131.32 950.766 132.221 952.815 134.023C954.9 135.79 955.942 138.192 955.942 141.231V161H949.529V155.912H948.469L949.529 154.481C949.529 156.636 948.734 158.35 947.144 159.622C945.554 160.894 943.434 161.53 940.784 161.53ZM942.957 156.548C944.83 156.548 946.349 156.071 947.515 155.117C948.717 154.163 949.317 152.926 949.317 151.407V147.856H942.162C940.82 147.856 939.742 148.245 938.929 149.022C938.117 149.799 937.71 150.824 937.71 152.096C937.71 153.474 938.17 154.569 939.088 155.382C940.042 156.159 941.332 156.548 942.957 156.548ZM975.955 161.53C973.482 161.53 971.309 161.071 969.436 160.152C967.599 159.198 966.168 157.873 965.143 156.177C964.119 154.446 963.606 152.414 963.606 150.082V142.768C963.606 140.401 964.119 138.369 965.143 136.673C966.168 134.977 967.599 133.67 969.436 132.751C971.309 131.797 973.482 131.32 975.955 131.32C979.63 131.32 982.563 132.274 984.753 134.182C986.944 136.055 988.092 138.616 988.198 141.867H981.573C981.467 140.348 980.92 139.182 979.93 138.369C978.976 137.521 977.651 137.097 975.955 137.097C974.189 137.097 972.793 137.592 971.768 138.581C970.744 139.535 970.231 140.913 970.231 142.715V150.082C970.231 151.884 970.744 153.28 971.768 154.269C972.793 155.258 974.189 155.753 975.955 155.753C977.651 155.753 978.976 155.347 979.93 154.534C980.92 153.686 981.467 152.502 981.573 150.983H988.198C988.092 154.234 986.944 156.813 984.753 158.721C982.563 160.594 979.63 161.53 975.955 161.53ZM1010.76 161C1007.96 161 1005.77 160.223 1004.18 158.668C1002.63 157.113 1001.85 154.976 1001.85 152.255V137.839H993.955V131.85H1001.85V123.635H1008.53V131.85H1019.71V137.839H1008.53V152.255C1008.53 154.092 1009.43 155.011 1011.23 155.011H1019.18V161H1010.76ZM1058.2 161V122.31H1066.05L1069.81 134.606C1070.2 135.843 1070.52 136.973 1070.76 137.998C1071.01 139.023 1071.17 139.765 1071.24 140.224C1071.31 139.765 1071.47 139.023 1071.72 137.998C1071.96 136.973 1072.27 135.843 1072.62 134.606L1076.22 122.31H1084.07V161H1077.87V148.969C1077.87 147.202 1077.92 145.277 1078.02 143.192C1078.13 141.107 1078.25 139.023 1078.4 136.938C1078.54 134.853 1078.7 132.875 1078.87 131.002C1079.08 129.129 1079.26 127.486 1079.4 126.073L1074.21 144.358H1068.17L1062.81 126.073C1062.99 127.416 1063.17 129.006 1063.34 130.843C1063.52 132.645 1063.68 134.588 1063.82 136.673C1064 138.722 1064.14 140.807 1064.24 142.927C1064.35 145.047 1064.4 147.061 1064.4 148.969V161H1058.2ZM1102.97 161.53C1100.49 161.53 1098.34 161.053 1096.5 160.099C1094.66 159.145 1093.23 157.82 1092.21 156.124C1091.22 154.393 1090.72 152.379 1090.72 150.082V142.768C1090.72 140.471 1091.22 138.475 1092.21 136.779C1093.23 135.048 1094.66 133.705 1096.5 132.751C1098.34 131.797 1100.49 131.32 1102.97 131.32C1105.4 131.32 1107.52 131.797 1109.33 132.751C1111.16 133.705 1112.58 135.048 1113.57 136.779C1114.59 138.475 1115.1 140.471 1115.1 142.768V148.015H1097.14V150.082C1097.14 152.131 1097.63 153.686 1098.62 154.746C1099.61 155.771 1101.08 156.283 1103.02 156.283C1104.5 156.283 1105.71 156.036 1106.62 155.541C1107.54 155.011 1108.13 154.251 1108.37 153.262H1114.89C1114.4 155.771 1113.05 157.785 1110.86 159.304C1108.71 160.788 1106.08 161.53 1102.97 161.53ZM1108.69 144.305V142.715C1108.69 140.701 1108.21 139.164 1107.26 138.104C1106.31 137.009 1104.87 136.461 1102.97 136.461C1101.06 136.461 1099.61 137.009 1098.62 138.104C1097.63 139.199 1097.14 140.754 1097.14 142.768V143.881L1109.17 143.775L1108.69 144.305Z" fill="white"/>
<rect x="685" y="292" width="551" height="551" rx="38" stroke="white" stroke-width="2" stroke-linejoin="round"/>
<path d="M726.8 491V461.8H742.4V463.64H728.8V474.88H741V476.68H728.8V489.16H742.4V491H726.8ZM749.144 491V469H750.904V472H751.144L751.064 472.56C751.038 471.36 751.358 470.4 752.024 469.68C752.691 468.96 753.611 468.6 754.784 468.6C755.931 468.6 756.851 468.947 757.544 469.64C758.264 470.333 758.704 471.307 758.864 472.56L758.704 472H759.024L758.944 472.56C758.918 471.36 759.224 470.4 759.864 469.68C760.531 468.96 761.451 468.6 762.624 468.6C763.958 468.6 764.984 469.067 765.704 470C766.451 470.907 766.824 472.16 766.824 473.76V491H764.864V474C764.864 472.853 764.611 471.947 764.104 471.28C763.598 470.613 762.904 470.28 762.024 470.28C761.091 470.28 760.344 470.627 759.784 471.32C759.224 471.987 758.944 472.88 758.944 474V491H757.024V474C757.024 472.853 756.771 471.947 756.264 471.28C755.758 470.613 755.064 470.28 754.184 470.28C753.304 470.28 752.584 470.613 752.024 471.28C751.464 471.947 751.158 472.853 751.104 474V491H749.144ZM780.729 491.4C778.462 491.4 776.649 490.8 775.289 489.6C773.929 488.4 773.249 486.813 773.249 484.84C773.249 482.947 773.875 481.44 775.129 480.32C776.382 479.173 778.035 478.6 780.089 478.6H787.649V476C787.649 474.24 787.169 472.88 786.209 471.92C785.249 470.933 783.889 470.44 782.129 470.44C780.529 470.44 779.209 470.84 778.169 471.64C777.129 472.413 776.515 473.467 776.329 474.8H774.329C774.595 472.933 775.435 471.44 776.849 470.32C778.289 469.173 780.049 468.6 782.129 468.6C784.395 468.6 786.209 469.28 787.569 470.64C788.955 472 789.649 473.787 789.649 476V491H787.649V486.52H787.289L787.929 485.72C787.929 487.427 787.262 488.8 785.929 489.84C784.622 490.88 782.889 491.4 780.729 491.4ZM781.289 489.64C783.182 489.64 784.715 489.147 785.889 488.16C787.062 487.173 787.649 485.893 787.649 484.32V480.36H780.049C778.609 480.36 777.449 480.76 776.569 481.56C775.689 482.333 775.249 483.373 775.249 484.68C775.249 486.147 775.795 487.347 776.889 488.28C778.009 489.187 779.475 489.64 781.289 489.64ZM797.753 491V489.2H805.793V470.8H798.753V469H807.793V489.2H815.353V491H797.753ZM806.553 464.8C805.86 464.8 805.3 464.6 804.873 464.2C804.446 463.8 804.233 463.267 804.233 462.6C804.233 461.933 804.446 461.4 804.873 461C805.3 460.6 805.86 460.4 806.553 460.4C807.246 460.4 807.806 460.6 808.233 461C808.66 461.4 808.873 461.933 808.873 462.6C808.873 463.267 808.66 463.8 808.233 464.2C807.806 464.6 807.246 464.8 806.553 464.8ZM832.538 491C831.338 491 830.324 490.8 829.498 490.4C828.671 489.973 828.031 489.36 827.578 488.56C827.151 487.733 826.938 486.747 826.938 485.6V463.6H819.938V461.8H828.938V485.6C828.938 486.773 829.244 487.667 829.858 488.28C830.471 488.893 831.364 489.2 832.538 489.2H839.538V491H832.538Z" fill="white" fill-opacity="0.3"/>
<path d="M685 769H1235" stroke="white" stroke-width="3"/>
<path d="M925.15 817.3C923.81 817.3 922.64 817.06 921.64 816.58C920.66 816.1 919.9 815.42 919.36 814.54C918.82 813.66 918.55 812.63 918.55 811.45H920.05C920.05 812.81 920.51 813.9 921.43 814.72C922.37 815.54 923.61 815.95 925.15 815.95C926.65 815.95 927.82 815.58 928.66 814.84C929.52 814.08 929.95 813.03 929.95 811.69C929.95 810.53 929.62 809.52 928.96 808.66C928.3 807.8 927.4 807.2 926.26 806.86L923.74 806.11C922.3 805.67 921.17 804.94 920.35 803.92C919.55 802.88 919.15 801.65 919.15 800.23C919.15 799.11 919.39 798.15 919.87 797.35C920.37 796.53 921.07 795.9 921.97 795.46C922.89 795.02 923.96 794.8 925.18 794.8C927.02 794.8 928.47 795.32 929.53 796.36C930.61 797.38 931.15 798.78 931.15 800.56H929.65C929.65 799.22 929.24 798.15 928.42 797.35C927.6 796.55 926.51 796.15 925.15 796.15C923.75 796.15 922.65 796.5 921.85 797.2C921.05 797.9 920.65 798.87 920.65 800.11C920.65 801.19 920.96 802.14 921.58 802.96C922.2 803.76 923.04 804.33 924.1 804.67L926.62 805.45C928.1 805.91 929.27 806.69 930.13 807.79C931.01 808.89 931.45 810.16 931.45 811.6C931.45 812.76 931.19 813.77 930.67 814.63C930.17 815.47 929.45 816.13 928.51 816.61C927.57 817.07 926.45 817.3 925.15 817.3ZM943.018 817.3C941.798 817.3 940.748 817.06 939.868 816.58C938.988 816.08 938.308 815.38 937.828 814.48C937.368 813.58 937.138 812.52 937.138 811.3V806.2C937.138 804.98 937.368 803.93 937.828 803.05C938.308 802.15 938.988 801.45 939.868 800.95C940.748 800.45 941.798 800.2 943.018 800.2C944.238 800.2 945.278 800.45 946.138 800.95C946.998 801.45 947.658 802.15 948.118 803.05C948.598 803.93 948.838 804.98 948.838 806.2V809.05H938.638V811.3C938.638 812.74 939.018 813.88 939.778 814.72C940.538 815.56 941.618 815.98 943.018 815.98C944.138 815.98 945.058 815.71 945.778 815.17C946.518 814.63 947.028 813.89 947.308 812.95H948.808C948.508 814.29 947.848 815.35 946.828 816.13C945.828 816.91 944.558 817.3 943.018 817.3ZM947.338 808.03V806.2C947.338 804.76 946.958 803.62 946.198 802.78C945.458 801.94 944.398 801.52 943.018 801.52C941.618 801.52 940.538 801.94 939.778 802.78C939.018 803.6 938.638 804.74 938.638 806.2V807.76H947.668L947.338 808.03ZM955.277 817V800.5H956.777V803.35H957.467L956.567 804.88C956.567 803.46 956.997 802.33 957.857 801.49C958.737 800.63 959.907 800.2 961.367 800.2C962.987 800.2 964.287 800.72 965.267 801.76C966.247 802.8 966.737 804.21 966.737 805.99V817H965.237V806.2C965.237 804.72 964.857 803.57 964.097 802.75C963.357 801.91 962.347 801.49 961.067 801.49C959.747 801.49 958.697 801.91 957.917 802.75C957.157 803.59 956.777 804.74 956.777 806.2V817H955.277ZM978.575 817.3C976.935 817.3 975.615 816.76 974.615 815.68C973.615 814.58 973.115 813.13 973.115 811.33V806.2C973.115 804.4 973.615 802.95 974.615 801.85C975.615 800.75 976.935 800.2 978.575 800.2C980.015 800.2 981.185 800.61 982.085 801.43C983.005 802.25 983.465 803.34 983.465 804.7L982.625 802.75H983.165V799.6V795.1H984.665V817H983.165V814.75H982.325L983.465 812.8C983.465 814.16 983.005 815.25 982.085 816.07C981.185 816.89 980.015 817.3 978.575 817.3ZM978.875 816.01C980.235 816.01 981.285 815.6 982.025 814.78C982.785 813.94 983.165 812.79 983.165 811.33V806.2C983.165 804.72 982.785 803.57 982.025 802.75C981.285 801.91 980.235 801.49 978.875 801.49C977.535 801.49 976.485 801.91 975.725 802.75C974.985 803.57 974.615 804.72 974.615 806.2V811.33C974.615 812.79 974.985 813.94 975.725 814.78C976.485 815.6 977.535 816.01 978.875 816.01ZM996.503 810.85L996.023 799.9V795.1H997.883V799.9L997.403 810.85H996.503ZM996.983 817.15C996.483 817.15 996.083 817 995.783 816.7C995.483 816.4 995.333 816 995.333 815.5C995.333 815 995.483 814.6 995.783 814.3C996.083 814 996.483 813.85 996.983 813.85H997.133C997.633 813.85 998.033 814 998.333 814.3C998.633 814.6 998.783 815 998.783 815.5C998.783 816 998.633 816.4 998.333 816.7C998.033 817 997.633 817.15 997.133 817.15H996.983Z" fill="white"/>
</svg>
