<svg width="1920" height="1080" viewBox="0 0 1920 1080" fill="none" xmlns="http://www.w3.org/2000/svg">
<rect width="1920" height="1080" fill="black"/>
<path d="M85.7627 211.822L71.8927 211.822L71.8927 210.112L77.8207 210.112L77.8207 205.666L71.8927 205.666L71.8927 203.956L85.7627 203.956L85.7627 205.666L79.3787 205.666L79.3787 210.112L85.7627 210.112L85.7627 211.822ZM85.9527 196.496C85.9527 197.332 85.7944 198.054 85.4777 198.662C85.161 199.258 84.705 199.72 84.1097 200.049C83.5017 200.366 82.786 200.524 81.9627 200.524L75.6927 200.524C74.8567 200.524 74.141 200.366 73.5457 200.049C72.9504 199.72 72.4944 199.258 72.1777 198.662C71.861 198.054 71.7027 197.332 71.7027 196.496C71.7027 195.66 71.861 194.945 72.1777 194.349C72.4944 193.741 72.9504 193.279 73.5457 192.962C74.141 192.633 74.8504 192.468 75.6737 192.468L81.9627 192.468C82.786 192.468 83.5017 192.633 84.1097 192.962C84.705 193.279 85.161 193.741 85.4777 194.349C85.7944 194.945 85.9527 195.66 85.9527 196.496ZM84.4137 196.496C84.4137 195.749 84.2047 195.179 83.7867 194.786C83.356 194.381 82.748 194.178 81.9627 194.178L75.6927 194.178C74.9074 194.178 74.3057 194.381 73.8877 194.786C73.457 195.179 73.2417 195.749 73.2417 196.496C73.2417 197.231 73.457 197.801 73.8877 198.206C74.3057 198.612 74.9074 198.814 75.6927 198.814L81.9627 198.814C82.748 198.814 83.356 198.612 83.7867 198.206C84.2047 197.801 84.4137 197.231 84.4137 196.496ZM85.7627 189.36L71.8927 189.36L71.8927 187.118L76.3767 185.674C76.782 185.534 77.1874 185.408 77.5927 185.294C77.9854 185.18 78.2894 185.097 78.5047 185.047C78.2894 184.983 77.9854 184.901 77.5927 184.8C77.1874 184.698 76.7757 184.584 76.3577 184.458L71.8927 183.09L71.8927 180.848L85.7627 180.848L85.7627 182.52L80.7277 182.52C80.1704 182.52 79.537 182.501 78.8277 182.463C78.1184 182.425 77.3964 182.374 76.6617 182.311C75.9144 182.247 75.205 182.184 74.5337 182.121C73.8497 182.045 73.2544 181.981 72.7477 181.931L79.6827 184.173L79.6827 185.978L72.7477 188.239C73.2417 188.175 73.818 188.112 74.4767 188.049C75.1227 187.985 75.813 187.928 76.5477 187.878C77.2697 187.827 77.9917 187.783 78.7137 187.745C79.4357 187.707 80.107 187.688 80.7277 187.688L85.7627 187.688L85.7627 189.36ZM85.7627 177.511L71.8927 177.511L71.8927 169.531L73.4507 169.531L73.4507 175.82L77.7447 175.82L77.7447 170.196L79.2837 170.196L79.2837 175.82L84.2047 175.82L84.2047 169.531L85.7627 169.531L85.7627 177.511Z" fill="white"/>
<path d="M85.7627 437.215L71.8927 437.215L71.8927 432.75C71.8927 431.889 72.0637 431.141 72.4057 430.508C72.735 429.875 73.2037 429.387 73.8117 429.045C74.4197 428.69 75.1417 428.513 75.9777 428.513C76.801 428.513 77.523 428.69 78.1437 429.045C78.7517 429.387 79.2267 429.875 79.5687 430.508C79.898 431.141 80.0627 431.889 80.0627 432.75L80.0627 435.505L85.7627 435.505L85.7627 437.215ZM78.5237 435.505L78.5237 432.75C78.5237 432.003 78.2957 431.407 77.8397 430.964C77.371 430.508 76.7504 430.28 75.9777 430.28C75.1924 430.28 74.5717 430.508 74.1157 430.964C73.6597 431.407 73.4317 432.003 73.4317 432.75L73.4317 435.505L78.5237 435.505ZM85.7627 425.822L71.8927 425.822L71.8927 421.528C71.8927 420.705 72.0637 419.983 72.4057 419.362C72.735 418.742 73.1974 418.26 73.7927 417.918C74.388 417.576 75.0847 417.405 75.8827 417.405C76.82 417.405 77.6244 417.652 78.2957 418.146C78.967 418.628 79.4294 419.286 79.6827 420.122L85.7627 417.215L85.7627 419.229L79.8727 421.889L79.8727 424.112L85.7627 424.112L85.7627 425.822ZM78.3337 424.112L78.3337 421.528C78.3337 420.819 78.112 420.249 77.6687 419.818C77.2127 419.388 76.6174 419.172 75.8827 419.172C75.1354 419.172 74.54 419.388 74.0967 419.818C73.6534 420.249 73.4317 420.819 73.4317 421.528L73.4317 424.112L78.3337 424.112ZM85.9527 410.478C85.9527 411.314 85.7944 412.036 85.4777 412.644C85.161 413.239 84.705 413.702 84.1097 414.031C83.5017 414.348 82.786 414.506 81.9627 414.506L75.6927 414.506C74.8567 414.506 74.141 414.348 73.5457 414.031C72.9504 413.702 72.4944 413.239 72.1777 412.644C71.861 412.036 71.7027 411.314 71.7027 410.478C71.7027 409.642 71.861 408.926 72.1777 408.331C72.4944 407.723 72.9504 407.261 73.5457 406.944C74.141 406.615 74.8504 406.45 75.6737 406.45L81.9627 406.45C82.786 406.45 83.5017 406.615 84.1097 406.944C84.705 407.261 85.161 407.723 85.4777 408.331C85.7944 408.926 85.9527 409.642 85.9527 410.478ZM84.4137 410.478C84.4137 409.731 84.2047 409.161 83.7867 408.768C83.356 408.363 82.748 408.16 81.9627 408.16L75.6927 408.16C74.9074 408.16 74.3057 408.363 73.8877 408.768C73.457 409.161 73.2417 409.731 73.2417 410.478C73.2417 411.213 73.457 411.783 73.8877 412.188C74.3057 412.593 74.9074 412.796 75.6927 412.796L81.9627 412.796C82.748 412.796 83.356 412.593 83.7867 412.188C84.2047 411.783 84.4137 411.213 84.4137 410.478ZM85.9527 399.655C85.9527 400.985 85.579 402.03 84.8317 402.79C84.0844 403.55 83.0647 403.93 81.7727 403.93L81.7727 402.22C82.6214 402.22 83.28 401.999 83.7487 401.555C84.2047 401.099 84.4327 400.466 84.4327 399.655C84.4327 398.845 84.2047 398.218 83.7487 397.774C83.28 397.318 82.6214 397.09 81.7727 397.09L73.4507 397.09L73.4507 400.415L71.8927 400.415L71.8927 395.38L81.7727 395.38C83.0647 395.38 84.0844 395.767 84.8317 396.539C85.579 397.299 85.9527 398.338 85.9527 399.655ZM85.7627 391.493L71.8927 391.493L71.8927 383.513L73.4507 383.513L73.4507 389.802L77.7447 389.802L77.7447 384.178L79.2837 384.178L79.2837 389.802L84.2047 389.802L84.2047 383.513L85.7627 383.513L85.7627 391.493ZM85.9527 376.224C85.9527 377.06 85.7944 377.788 85.4777 378.409C85.161 379.017 84.705 379.492 84.1097 379.834C83.5017 380.163 82.786 380.328 81.9627 380.328L75.6927 380.328C74.8567 380.328 74.141 380.163 73.5457 379.834C72.9504 379.492 72.4944 379.017 72.1777 378.409C71.861 377.788 71.7027 377.06 71.7027 376.224C71.7027 375.388 71.8674 374.666 72.1967 374.058C72.5134 373.45 72.9694 372.981 73.5647 372.652C74.16 372.323 74.8694 372.158 75.6927 372.158L75.6927 373.868C74.9074 373.868 74.3057 374.077 73.8877 374.495C73.457 374.9 73.2417 375.477 73.2417 376.224C73.2417 376.971 73.4507 377.56 73.8687 377.991C74.2867 378.409 74.8884 378.618 75.6737 378.618L81.9627 378.618C82.748 378.618 83.356 378.409 83.7867 377.991C84.2047 377.56 84.4137 376.971 84.4137 376.224C84.4137 375.477 84.2047 374.9 83.7867 374.495C83.356 374.077 82.748 373.868 81.9627 373.868L81.9627 372.158C82.7734 372.158 83.4827 372.323 84.0907 372.652C84.686 372.981 85.1484 373.45 85.4777 374.058C85.7944 374.666 85.9527 375.388 85.9527 376.224ZM85.7627 365.763L73.4317 365.763L73.4317 369.563L71.8737 369.563L71.8737 360.253L73.4317 360.253L73.4317 364.053L85.7627 364.053L85.7627 365.763ZM85.9527 353.439C85.9527 354.351 85.8007 355.136 85.4967 355.795C85.1927 356.441 84.7557 356.941 84.1857 357.296C83.6157 357.651 82.938 357.834 82.1527 357.847L82.1527 356.137C82.8494 356.137 83.4004 355.903 83.8057 355.434C84.211 354.953 84.4137 354.288 84.4137 353.439C84.4137 352.641 84.2174 352.02 83.8247 351.577C83.432 351.121 82.8874 350.893 82.1907 350.893C81.6334 350.893 81.1457 351.045 80.7277 351.349C80.3097 351.64 80.0184 352.065 79.8537 352.622L79.2647 354.503C78.9734 355.453 78.4857 356.188 77.8017 356.707C77.1177 357.214 76.3134 357.467 75.3887 357.467C74.6414 357.467 73.9954 357.302 73.4507 356.973C72.8934 356.631 72.4627 356.156 72.1587 355.548C71.842 354.94 71.6837 354.224 71.6837 353.401C71.6837 352.185 72.0257 351.21 72.7097 350.475C73.381 349.74 74.2804 349.367 75.4077 349.354L75.4077 351.064C74.7237 351.064 74.1917 351.273 73.8117 351.691C73.419 352.096 73.2227 352.673 73.2227 353.42C73.2227 354.155 73.4 354.731 73.7547 355.149C74.1094 355.554 74.6034 355.757 75.2367 355.757C75.8067 355.757 76.3007 355.605 76.7187 355.301C77.1367 354.997 77.4344 354.56 77.6117 353.99L78.2197 352.09C78.511 351.165 79.005 350.45 79.7017 349.943C80.3984 349.436 81.2154 349.183 82.1527 349.183C82.9127 349.183 83.5777 349.36 84.1477 349.715C84.7177 350.07 85.161 350.57 85.4777 351.216C85.7944 351.849 85.9527 352.59 85.9527 353.439Z" fill="white"/>
<path d="M85.7627 677.013L71.8927 673.403L71.8927 671.104L85.7627 667.513L85.7627 669.242L82.0767 670.154L82.0767 674.353L85.7627 675.265L85.7627 677.013ZM80.6327 674.011L80.6327 670.515L76.3577 671.579C75.547 671.782 74.8694 671.94 74.3247 672.054C73.78 672.168 73.4254 672.238 73.2607 672.263C73.4254 672.288 73.78 672.358 74.3247 672.472C74.8694 672.586 75.5407 672.744 76.3387 672.947L80.6327 674.011ZM85.7627 664.803L71.8927 664.803L71.8927 660.87C71.8927 659.604 72.2094 658.616 72.8427 657.906C73.476 657.184 74.3564 656.823 75.4837 656.823C76.117 656.823 76.668 656.956 77.1367 657.222C77.6054 657.488 77.9664 657.868 78.2197 658.362C78.473 658.844 78.5934 659.426 78.5807 660.11L78.2957 660.11C78.283 659.376 78.4224 658.742 78.7137 658.21C79.005 657.666 79.423 657.248 79.9677 656.956C80.5124 656.652 81.1584 656.5 81.9057 656.5C82.691 656.5 83.375 656.665 83.9577 656.994C84.5404 657.324 84.99 657.792 85.3067 658.4C85.6107 659.008 85.7627 659.737 85.7627 660.585L85.7627 664.803ZM84.2237 663.131L84.2237 660.775C84.2237 659.977 84.0147 659.35 83.5967 658.894C83.166 658.426 82.5834 658.191 81.8487 658.191C81.0887 658.191 80.4744 658.426 80.0057 658.894C79.5244 659.35 79.2837 659.977 79.2837 660.775L79.2837 663.131L84.2237 663.131ZM77.8017 663.131L77.8017 660.889C77.8017 660.155 77.6054 659.578 77.2127 659.16C76.82 658.73 76.288 658.514 75.6167 658.514C74.9454 658.514 74.4134 658.723 74.0207 659.141C73.628 659.559 73.4317 660.136 73.4317 660.87L73.4317 663.131L77.8017 663.131ZM85.9527 649.478C85.9527 650.314 85.7944 651.036 85.4777 651.644C85.161 652.239 84.705 652.702 84.1097 653.031C83.5017 653.348 82.786 653.506 81.9627 653.506L75.6927 653.506C74.8567 653.506 74.141 653.348 73.5457 653.031C72.9504 652.702 72.4944 652.239 72.1777 651.644C71.861 651.036 71.7027 650.314 71.7027 649.478C71.7027 648.642 71.861 647.926 72.1777 647.331C72.4944 646.723 72.9504 646.261 73.5457 645.944C74.141 645.615 74.8504 645.45 75.6737 645.45L81.9627 645.45C82.786 645.45 83.5017 645.615 84.1097 645.944C84.705 646.261 85.161 646.723 85.4777 647.331C85.7944 647.926 85.9527 648.642 85.9527 649.478ZM84.4137 649.478C84.4137 648.731 84.2047 648.161 83.7867 647.768C83.356 647.363 82.748 647.16 81.9627 647.16L75.6927 647.16C74.9074 647.16 74.3057 647.363 73.8877 647.768C73.457 648.161 73.2417 648.731 73.2417 649.478C73.2417 650.213 73.457 650.783 73.8877 651.188C74.3057 651.593 74.9074 651.796 75.6927 651.796L81.9627 651.796C82.748 651.796 83.356 651.593 83.7867 651.188C84.2047 650.783 84.4137 650.213 84.4137 649.478ZM85.9527 638.085C85.9527 639.377 85.598 640.365 84.8887 641.049C84.1667 641.733 83.1914 642.075 81.9627 642.075L71.8927 642.075L71.8927 640.365L81.9627 640.365C82.7227 640.365 83.3244 640.182 83.7677 639.814C84.211 639.434 84.4327 638.858 84.4327 638.085C84.4327 637.325 84.211 636.755 83.7677 636.375C83.3244 635.995 82.7227 635.805 81.9627 635.805L71.8927 635.805L71.8927 634.095L81.9627 634.095C83.204 634.095 84.1794 634.437 84.8887 635.121C85.598 635.793 85.9527 636.781 85.9527 638.085ZM85.7627 627.548L73.4317 627.548L73.4317 631.348L71.8737 631.348L71.8737 622.038L73.4317 622.038L73.4317 625.838L85.7627 625.838L85.7627 627.548ZM85.7627 608.164L71.8927 608.164L71.8927 605.922L76.3767 604.478C76.782 604.338 77.1874 604.212 77.5927 604.098C77.9854 603.984 78.2894 603.901 78.5047 603.851C78.2894 603.787 77.9854 603.705 77.5927 603.604C77.1874 603.502 76.7757 603.388 76.3577 603.262L71.8927 601.894L71.8927 599.652L85.7627 599.652L85.7627 601.324L80.7277 601.324C80.1704 601.324 79.537 601.305 78.8277 601.267C78.1184 601.229 77.3964 601.178 76.6617 601.115C75.9144 601.051 75.205 600.988 74.5337 600.925C73.8497 600.849 73.2544 600.785 72.7477 600.735L79.6827 602.977L79.6827 604.782L72.7477 607.043C73.2417 606.979 73.818 606.916 74.4767 606.853C75.1227 606.789 75.813 606.732 76.5477 606.682C77.2697 606.631 77.9917 606.587 78.7137 606.549C79.4357 606.511 80.107 606.492 80.7277 606.492L85.7627 606.492L85.7627 608.164ZM85.7627 596.315L71.8927 596.315L71.8927 588.335L73.4507 588.335L73.4507 594.624L77.7447 594.624L77.7447 589L79.2837 589L79.2837 594.624L84.2047 594.624L84.2047 588.335L85.7627 588.335L85.7627 596.315Z" fill="white"/>
<path d="M87.5093 895.831C87.5093 896.667 87.351 897.395 87.0343 898.016C86.7177 898.624 86.2617 899.099 85.6663 899.441C85.0583 899.77 84.3427 899.935 83.5193 899.935L77.2493 899.935C76.4133 899.935 75.6977 899.77 75.1023 899.441C74.507 899.099 74.051 898.624 73.7343 898.016C73.4177 897.395 73.2593 896.667 73.2593 895.831C73.2593 894.995 73.424 894.273 73.7533 893.665C74.07 893.057 74.526 892.588 75.1213 892.259C75.7167 891.929 76.426 891.765 77.2493 891.765L77.2493 893.475C76.464 893.475 75.8623 893.684 75.4443 894.102C75.0137 894.507 74.7983 895.083 74.7983 895.831C74.7983 896.578 75.0073 897.167 75.4253 897.598C75.8433 898.016 76.445 898.225 77.2303 898.225L83.5193 898.225C84.3047 898.225 84.9127 898.016 85.3433 897.598C85.7613 897.167 85.9703 896.578 85.9703 895.831C85.9703 895.083 85.7613 894.507 85.3433 894.102C84.9127 893.684 84.3047 893.475 83.5193 893.475L83.5193 891.765C84.33 891.765 85.0393 891.929 85.6473 892.259C86.2427 892.588 86.705 893.057 87.0343 893.665C87.351 894.273 87.5093 894.995 87.5093 895.831ZM87.5093 884.514C87.5093 885.35 87.351 886.072 87.0343 886.68C86.7177 887.276 86.2617 887.738 85.6663 888.067C85.0583 888.384 84.3427 888.542 83.5193 888.542L77.2493 888.542C76.4133 888.542 75.6977 888.384 75.1023 888.067C74.507 887.738 74.051 887.276 73.7343 886.68C73.4177 886.072 73.2593 885.35 73.2593 884.514C73.2593 883.678 73.4177 882.963 73.7343 882.367C74.051 881.759 74.507 881.297 75.1023 880.98C75.6977 880.651 76.407 880.486 77.2303 880.486L83.5193 880.486C84.3427 880.486 85.0583 880.651 85.6663 880.98C86.2617 881.297 86.7177 881.759 87.0343 882.367C87.351 882.963 87.5093 883.678 87.5093 884.514ZM85.9703 884.514C85.9703 883.767 85.7613 883.197 85.3433 882.804C84.9127 882.399 84.3047 882.196 83.5193 882.196L77.2493 882.196C76.464 882.196 75.8623 882.399 75.4443 882.804C75.0137 883.197 74.7983 883.767 74.7983 884.514C74.7983 885.249 75.0137 885.819 75.4443 886.224C75.8623 886.63 76.464 886.832 77.2493 886.832L83.5193 886.832C84.3047 886.832 84.9127 886.63 85.3433 886.224C85.7613 885.819 85.9703 885.249 85.9703 884.514ZM87.3193 877.112L73.4493 877.112L73.4493 874.832L85.3243 870.595C85.0077 870.62 84.6213 870.652 84.1653 870.69C83.6967 870.715 83.209 870.74 82.7023 870.766C82.183 870.778 81.6953 870.785 81.2393 870.785L73.4493 870.785L73.4493 869.132L87.3193 869.132L87.3193 871.412L75.4443 875.63C75.7483 875.604 76.1347 875.579 76.6033 875.554C77.0593 875.528 77.547 875.509 78.0663 875.497C78.573 875.471 79.0607 875.459 79.5293 875.459L87.3193 875.459L87.3193 877.112ZM87.3193 862.584L74.9883 862.584L74.9883 866.384L73.4303 866.384L73.4303 857.074L74.9883 857.074L74.9883 860.874L87.3193 860.874L87.3193 862.584ZM87.3193 855.086L73.4493 851.476L73.4493 849.177L87.3193 845.586L87.3193 847.315L83.6333 848.227L83.6333 852.426L87.3193 853.338L87.3193 855.086ZM82.1893 852.084L82.1893 848.588L77.9143 849.652C77.1037 849.855 76.426 850.013 75.8813 850.127C75.3367 850.241 74.982 850.311 74.8173 850.336C74.982 850.362 75.3367 850.431 75.8813 850.545C76.426 850.659 77.0973 850.818 77.8953 851.02L82.1893 852.084ZM87.5093 838.868C87.5093 839.704 87.351 840.432 87.0343 841.053C86.7177 841.661 86.2617 842.136 85.6663 842.478C85.0583 842.807 84.3427 842.972 83.5193 842.972L77.2493 842.972C76.4133 842.972 75.6977 842.807 75.1023 842.478C74.507 842.136 74.051 841.661 73.7343 841.053C73.4177 840.432 73.2593 839.704 73.2593 838.868C73.2593 838.032 73.424 837.31 73.7533 836.702C74.07 836.094 74.526 835.625 75.1213 835.296C75.7167 834.967 76.426 834.802 77.2493 834.802L77.2493 836.512C76.464 836.512 75.8623 836.721 75.4443 837.139C75.0137 837.544 74.7983 838.121 74.7983 838.868C74.7983 839.615 75.0073 840.204 75.4253 840.635C75.8433 841.053 76.445 841.262 77.2303 841.262L83.5193 841.262C84.3047 841.262 84.9127 841.053 85.3433 840.635C85.7613 840.204 85.9703 839.615 85.9703 838.868C85.9703 838.121 85.7613 837.544 85.3433 837.139C84.9127 836.721 84.3047 836.512 83.5193 836.512L83.5193 834.802C84.33 834.802 85.0393 834.967 85.6473 835.296C86.2427 835.625 86.705 836.094 87.0343 836.702C87.351 837.31 87.5093 838.032 87.5093 838.868ZM87.3193 828.406L74.9883 828.406L74.9883 832.206L73.4303 832.206L73.4303 822.896L74.9883 822.896L74.9883 826.696L87.3193 826.696L87.3193 828.406Z" fill="white"/>
<rect x="305.319" y="246" width="347.213" height="247.439" fill="#D9D9D9"/>
<rect x="786.894" y="246" width="347.213" height="247.439" fill="#D9D9D9"/>
<rect x="786.894" y="586.561" width="347.213" height="247.439" fill="#D9D9D9"/>
<rect x="1268.47" y="246" width="347.213" height="247.439" fill="#D9D9D9"/>
<rect x="1268.47" y="586.561" width="347.213" height="247.439" fill="#D9D9D9"/>
<rect x="305.319" y="586.561" width="347.213" height="247.439" fill="#D9D9D9"/>
</svg>
