<svg width="1920" height="1080" viewBox="0 0 1920 1080" fill="none" xmlns="http://www.w3.org/2000/svg">
<rect width="1920" height="1080" fill="black"/>
<path d="M85.7627 211.822L71.8927 211.822L71.8927 210.112L77.8207 210.112L77.8207 205.666L71.8927 205.666L71.8927 203.956L85.7627 203.956L85.7627 205.666L79.3787 205.666L79.3787 210.112L85.7627 210.112L85.7627 211.822ZM85.9527 196.496C85.9527 197.332 85.7944 198.054 85.4777 198.662C85.161 199.258 84.705 199.72 84.1097 200.049C83.5017 200.366 82.786 200.524 81.9627 200.524L75.6927 200.524C74.8567 200.524 74.141 200.366 73.5457 200.049C72.9504 199.72 72.4944 199.258 72.1777 198.662C71.861 198.054 71.7027 197.332 71.7027 196.496C71.7027 195.66 71.861 194.945 72.1777 194.349C72.4944 193.741 72.9504 193.279 73.5457 192.962C74.141 192.633 74.8504 192.468 75.6737 192.468L81.9627 192.468C82.786 192.468 83.5017 192.633 84.1097 192.962C84.705 193.279 85.161 193.741 85.4777 194.349C85.7944 194.945 85.9527 195.66 85.9527 196.496ZM84.4137 196.496C84.4137 195.749 84.2047 195.179 83.7867 194.786C83.356 194.381 82.748 194.178 81.9627 194.178L75.6927 194.178C74.9074 194.178 74.3057 194.381 73.8877 194.786C73.457 195.179 73.2417 195.749 73.2417 196.496C73.2417 197.231 73.457 197.801 73.8877 198.206C74.3057 198.612 74.9074 198.814 75.6927 198.814L81.9627 198.814C82.748 198.814 83.356 198.612 83.7867 198.206C84.2047 197.801 84.4137 197.231 84.4137 196.496ZM85.7627 189.36L71.8927 189.36L71.8927 187.118L76.3767 185.674C76.782 185.534 77.1874 185.408 77.5927 185.294C77.9854 185.18 78.2894 185.097 78.5047 185.047C78.2894 184.983 77.9854 184.901 77.5927 184.8C77.1874 184.698 76.7757 184.584 76.3577 184.458L71.8927 183.09L71.8927 180.848L85.7627 180.848L85.7627 182.52L80.7277 182.52C80.1704 182.52 79.537 182.501 78.8277 182.463C78.1184 182.425 77.3964 182.374 76.6617 182.311C75.9144 182.247 75.205 182.184 74.5337 182.121C73.8497 182.045 73.2544 181.981 72.7477 181.931L79.6827 184.173L79.6827 185.978L72.7477 188.239C73.2417 188.175 73.818 188.112 74.4767 188.049C75.1227 187.985 75.813 187.928 76.5477 187.878C77.2697 187.827 77.9917 187.783 78.7137 187.745C79.4357 187.707 80.107 187.688 80.7277 187.688L85.7627 187.688L85.7627 189.36ZM85.7627 177.511L71.8927 177.511L71.8927 169.531L73.4507 169.531L73.4507 175.82L77.7447 175.82L77.7447 170.196L79.2837 170.196L79.2837 175.82L84.2047 175.82L84.2047 169.531L85.7627 169.531L85.7627 177.511Z" fill="white"/>
<path d="M86 437.215L72.13 437.215L72.13 432.75C72.13 431.889 72.301 431.141 72.643 430.508C72.9723 429.875 73.441 429.387 74.049 429.045C74.657 428.69 75.379 428.513 76.215 428.513C77.0383 428.513 77.7603 428.69 78.381 429.045C78.989 429.387 79.464 429.875 79.806 430.508C80.1353 431.141 80.3 431.889 80.3 432.75L80.3 435.505L86 435.505L86 437.215ZM78.761 435.505L78.761 432.75C78.761 432.003 78.533 431.407 78.077 430.964C77.6083 430.508 76.9877 430.28 76.215 430.28C75.4297 430.28 74.809 430.508 74.353 430.964C73.897 431.407 73.669 432.003 73.669 432.75L73.669 435.505L78.761 435.505ZM86 425.822L72.13 425.822L72.13 421.528C72.13 420.705 72.301 419.983 72.643 419.362C72.9723 418.742 73.4347 418.26 74.03 417.918C74.6253 417.576 75.322 417.405 76.12 417.405C77.0573 417.405 77.8617 417.652 78.533 418.146C79.2043 418.628 79.6667 419.286 79.92 420.122L86 417.215L86 419.229L80.11 421.889L80.11 424.112L86 424.112L86 425.822ZM78.571 424.112L78.571 421.528C78.571 420.819 78.3493 420.249 77.906 419.818C77.45 419.388 76.8547 419.172 76.12 419.172C75.3727 419.172 74.7773 419.388 74.334 419.818C73.8907 420.249 73.669 420.819 73.669 421.528L73.669 424.112L78.571 424.112ZM86.19 410.478C86.19 411.314 86.0317 412.036 85.715 412.644C85.3983 413.239 84.9423 413.702 84.347 414.031C83.739 414.348 83.0233 414.506 82.2 414.506L75.93 414.506C75.094 414.506 74.3783 414.348 73.783 414.031C73.1877 413.702 72.7317 413.239 72.415 412.644C72.0983 412.036 71.94 411.314 71.94 410.478C71.94 409.642 72.0983 408.926 72.415 408.331C72.7317 407.723 73.1877 407.261 73.783 406.944C74.3783 406.615 75.0877 406.45 75.911 406.45L82.2 406.45C83.0233 406.45 83.739 406.615 84.347 406.944C84.9423 407.261 85.3983 407.723 85.715 408.331C86.0317 408.926 86.19 409.642 86.19 410.478ZM84.651 410.478C84.651 409.731 84.442 409.161 84.024 408.768C83.5933 408.363 82.9853 408.16 82.2 408.16L75.93 408.16C75.1447 408.16 74.543 408.363 74.125 408.768C73.6943 409.161 73.479 409.731 73.479 410.478C73.479 411.213 73.6943 411.783 74.125 412.188C74.543 412.593 75.1447 412.796 75.93 412.796L82.2 412.796C82.9853 412.796 83.5933 412.593 84.024 412.188C84.442 411.783 84.651 411.213 84.651 410.478ZM86.19 399.655C86.19 400.985 85.8163 402.03 85.069 402.79C84.3217 403.55 83.302 403.93 82.01 403.93L82.01 402.22C82.8587 402.22 83.5173 401.999 83.986 401.555C84.442 401.099 84.67 400.466 84.67 399.655C84.67 398.845 84.442 398.218 83.986 397.774C83.5173 397.318 82.8587 397.09 82.01 397.09L73.688 397.09L73.688 400.415L72.13 400.415L72.13 395.38L82.01 395.38C83.302 395.38 84.3217 395.767 85.069 396.539C85.8163 397.299 86.19 398.338 86.19 399.655ZM86 391.493L72.13 391.493L72.13 383.513L73.688 383.513L73.688 389.802L77.982 389.802L77.982 384.178L79.521 384.178L79.521 389.802L84.442 389.802L84.442 383.513L86 383.513L86 391.493ZM86.19 376.224C86.19 377.06 86.0317 377.788 85.715 378.409C85.3983 379.017 84.9423 379.492 84.347 379.834C83.739 380.163 83.0233 380.328 82.2 380.328L75.93 380.328C75.094 380.328 74.3783 380.163 73.783 379.834C73.1877 379.492 72.7317 379.017 72.415 378.409C72.0983 377.788 71.94 377.06 71.94 376.224C71.94 375.388 72.1047 374.666 72.434 374.058C72.7507 373.45 73.2067 372.981 73.802 372.652C74.3973 372.323 75.1067 372.158 75.93 372.158L75.93 373.868C75.1447 373.868 74.543 374.077 74.125 374.495C73.6943 374.9 73.479 375.477 73.479 376.224C73.479 376.971 73.688 377.56 74.106 377.991C74.524 378.409 75.1257 378.618 75.911 378.618L82.2 378.618C82.9853 378.618 83.5933 378.409 84.024 377.991C84.442 377.56 84.651 376.971 84.651 376.224C84.651 375.477 84.442 374.9 84.024 374.495C83.5933 374.077 82.9853 373.868 82.2 373.868L82.2 372.158C83.0107 372.158 83.72 372.323 84.328 372.652C84.9233 372.981 85.3857 373.45 85.715 374.058C86.0317 374.666 86.19 375.388 86.19 376.224ZM86 365.763L73.669 365.763L73.669 369.563L72.111 369.563L72.111 360.253L73.669 360.253L73.669 364.053L86 364.053L86 365.763ZM86.19 353.439C86.19 354.351 86.038 355.136 85.734 355.795C85.43 356.441 84.993 356.941 84.423 357.296C83.853 357.651 83.1753 357.834 82.39 357.847L82.39 356.137C83.0867 356.137 83.6377 355.903 84.043 355.434C84.4483 354.953 84.651 354.288 84.651 353.439C84.651 352.641 84.4547 352.02 84.062 351.577C83.6693 351.121 83.1247 350.893 82.428 350.893C81.8707 350.893 81.383 351.045 80.965 351.349C80.547 351.64 80.2557 352.065 80.091 352.622L79.502 354.503C79.2107 355.453 78.723 356.188 78.039 356.707C77.355 357.214 76.5507 357.467 75.626 357.467C74.8787 357.467 74.2327 357.302 73.688 356.973C73.1307 356.631 72.7 356.156 72.396 355.548C72.0793 354.94 71.921 354.224 71.921 353.401C71.921 352.185 72.263 351.21 72.947 350.475C73.6183 349.74 74.5177 349.367 75.645 349.354L75.645 351.064C74.961 351.064 74.429 351.273 74.049 351.691C73.6563 352.096 73.46 352.673 73.46 353.42C73.46 354.155 73.6373 354.731 73.992 355.149C74.3467 355.554 74.8407 355.757 75.474 355.757C76.044 355.757 76.538 355.605 76.956 355.301C77.374 354.997 77.6717 354.56 77.849 353.99L78.457 352.09C78.7483 351.165 79.2423 350.45 79.939 349.943C80.6357 349.436 81.4527 349.183 82.39 349.183C83.15 349.183 83.815 349.36 84.385 349.715C84.955 350.07 85.3983 350.57 85.715 351.216C86.0317 351.849 86.19 352.59 86.19 353.439Z" fill="white"/>
<path d="M87 677.013L73.13 673.403L73.13 671.104L87 667.513L87 669.242L83.314 670.154L83.314 674.353L87 675.265L87 677.013ZM81.87 674.011L81.87 670.515L77.595 671.579C76.7843 671.782 76.1067 671.94 75.562 672.054C75.0173 672.168 74.6627 672.238 74.498 672.263C74.6627 672.288 75.0173 672.358 75.562 672.472C76.1067 672.586 76.778 672.744 77.576 672.947L81.87 674.011ZM87 664.803L73.13 664.803L73.13 660.87C73.13 659.604 73.4467 658.616 74.08 657.906C74.7133 657.184 75.5937 656.823 76.721 656.823C77.3543 656.823 77.9053 656.956 78.374 657.222C78.8427 657.488 79.2037 657.868 79.457 658.362C79.7103 658.844 79.8307 659.426 79.818 660.11L79.533 660.11C79.5203 659.376 79.6597 658.742 79.951 658.21C80.2423 657.666 80.6603 657.248 81.205 656.956C81.7497 656.652 82.3957 656.5 83.143 656.5C83.9283 656.5 84.6123 656.665 85.195 656.994C85.7777 657.324 86.2273 657.792 86.544 658.4C86.848 659.008 87 659.737 87 660.585L87 664.803ZM85.461 663.131L85.461 660.775C85.461 659.977 85.252 659.35 84.834 658.894C84.4033 658.426 83.8207 658.191 83.086 658.191C82.326 658.191 81.7117 658.426 81.243 658.894C80.7617 659.35 80.521 659.977 80.521 660.775L80.521 663.131L85.461 663.131ZM79.039 663.131L79.039 660.889C79.039 660.155 78.8427 659.578 78.45 659.16C78.0573 658.73 77.5253 658.514 76.854 658.514C76.1827 658.514 75.6507 658.723 75.258 659.141C74.8653 659.559 74.669 660.136 74.669 660.87L74.669 663.131L79.039 663.131ZM87.19 649.478C87.19 650.314 87.0317 651.036 86.715 651.644C86.3983 652.239 85.9423 652.702 85.347 653.031C84.739 653.348 84.0233 653.506 83.2 653.506L76.93 653.506C76.094 653.506 75.3783 653.348 74.783 653.031C74.1877 652.702 73.7317 652.239 73.415 651.644C73.0983 651.036 72.94 650.314 72.94 649.478C72.94 648.642 73.0983 647.926 73.415 647.331C73.7317 646.723 74.1877 646.261 74.783 645.944C75.3783 645.615 76.0877 645.45 76.911 645.45L83.2 645.45C84.0233 645.45 84.739 645.615 85.347 645.944C85.9423 646.261 86.3983 646.723 86.715 647.331C87.0317 647.926 87.19 648.642 87.19 649.478ZM85.651 649.478C85.651 648.731 85.442 648.161 85.024 647.768C84.5933 647.363 83.9853 647.16 83.2 647.16L76.93 647.16C76.1447 647.16 75.543 647.363 75.125 647.768C74.6943 648.161 74.479 648.731 74.479 649.478C74.479 650.213 74.6943 650.783 75.125 651.188C75.543 651.593 76.1447 651.796 76.93 651.796L83.2 651.796C83.9853 651.796 84.5933 651.593 85.024 651.188C85.442 650.783 85.651 650.213 85.651 649.478ZM87.19 638.085C87.19 639.377 86.8353 640.365 86.126 641.049C85.404 641.733 84.4287 642.075 83.2 642.075L73.13 642.075L73.13 640.365L83.2 640.365C83.96 640.365 84.5617 640.182 85.005 639.814C85.4483 639.434 85.67 638.858 85.67 638.085C85.67 637.325 85.4483 636.755 85.005 636.375C84.5617 635.995 83.96 635.805 83.2 635.805L73.13 635.805L73.13 634.095L83.2 634.095C84.4413 634.095 85.4167 634.437 86.126 635.121C86.8353 635.793 87.19 636.781 87.19 638.085ZM87 627.548L74.669 627.548L74.669 631.348L73.111 631.348L73.111 622.038L74.669 622.038L74.669 625.838L87 625.838L87 627.548ZM87 608.164L73.13 608.164L73.13 605.922L77.614 604.478C78.0193 604.338 78.4247 604.212 78.83 604.098C79.2227 603.984 79.5267 603.901 79.742 603.851C79.5267 603.787 79.2227 603.705 78.83 603.604C78.4247 603.502 78.013 603.388 77.595 603.262L73.13 601.894L73.13 599.652L87 599.652L87 601.324L81.965 601.324C81.4077 601.324 80.7743 601.305 80.065 601.267C79.3557 601.229 78.6337 601.178 77.899 601.115C77.1517 601.051 76.4423 600.988 75.771 600.925C75.087 600.849 74.4917 600.785 73.985 600.735L80.92 602.977L80.92 604.782L73.985 607.043C74.479 606.979 75.0553 606.916 75.714 606.853C76.36 606.789 77.0503 606.732 77.785 606.682C78.507 606.631 79.229 606.587 79.951 606.549C80.673 606.511 81.3443 606.492 81.965 606.492L87 606.492L87 608.164ZM87 596.315L73.13 596.315L73.13 588.335L74.688 588.335L74.688 594.624L78.982 594.624L78.982 589L80.521 589L80.521 594.624L85.442 594.624L85.442 588.335L87 588.335L87 596.315Z" fill="white"/>
<path d="M88.19 895.831C88.19 896.667 88.0317 897.395 87.715 898.016C87.3983 898.624 86.9423 899.099 86.347 899.441C85.739 899.77 85.0233 899.935 84.2 899.935L77.93 899.935C77.094 899.935 76.3783 899.77 75.783 899.441C75.1877 899.099 74.7317 898.624 74.415 898.016C74.0983 897.395 73.94 896.667 73.94 895.831C73.94 894.995 74.1047 894.273 74.434 893.665C74.7507 893.057 75.2067 892.588 75.802 892.259C76.3973 891.929 77.1067 891.765 77.93 891.765L77.93 893.475C77.1447 893.475 76.543 893.684 76.125 894.102C75.6943 894.507 75.479 895.083 75.479 895.831C75.479 896.578 75.688 897.167 76.106 897.598C76.524 898.016 77.1257 898.225 77.911 898.225L84.2 898.225C84.9853 898.225 85.5933 898.016 86.024 897.598C86.442 897.167 86.651 896.578 86.651 895.831C86.651 895.083 86.442 894.507 86.024 894.102C85.5933 893.684 84.9853 893.475 84.2 893.475L84.2 891.765C85.0107 891.765 85.72 891.929 86.328 892.259C86.9233 892.588 87.3857 893.057 87.715 893.665C88.0317 894.273 88.19 894.995 88.19 895.831ZM88.19 884.514C88.19 885.35 88.0317 886.072 87.715 886.68C87.3983 887.276 86.9423 887.738 86.347 888.067C85.739 888.384 85.0233 888.542 84.2 888.542L77.93 888.542C77.094 888.542 76.3783 888.384 75.783 888.067C75.1877 887.738 74.7317 887.276 74.415 886.68C74.0983 886.072 73.94 885.35 73.94 884.514C73.94 883.678 74.0983 882.963 74.415 882.367C74.7317 881.759 75.1877 881.297 75.783 880.98C76.3783 880.651 77.0877 880.486 77.911 880.486L84.2 880.486C85.0233 880.486 85.739 880.651 86.347 880.98C86.9423 881.297 87.3983 881.759 87.715 882.367C88.0317 882.963 88.19 883.678 88.19 884.514ZM86.651 884.514C86.651 883.767 86.442 883.197 86.024 882.804C85.5933 882.399 84.9853 882.196 84.2 882.196L77.93 882.196C77.1447 882.196 76.543 882.399 76.125 882.804C75.6943 883.197 75.479 883.767 75.479 884.514C75.479 885.249 75.6943 885.819 76.125 886.224C76.543 886.63 77.1447 886.832 77.93 886.832L84.2 886.832C84.9853 886.832 85.5933 886.63 86.024 886.224C86.442 885.819 86.651 885.249 86.651 884.514ZM88 877.112L74.13 877.112L74.13 874.832L86.005 870.595C85.6883 870.62 85.302 870.652 84.846 870.69C84.3773 870.715 83.8897 870.74 83.383 870.766C82.8637 870.778 82.376 870.785 81.92 870.785L74.13 870.785L74.13 869.132L88 869.132L88 871.412L76.125 875.63C76.429 875.604 76.8153 875.579 77.284 875.554C77.74 875.528 78.2277 875.509 78.747 875.497C79.2537 875.471 79.7413 875.459 80.21 875.459L88 875.459L88 877.112ZM88 862.584L75.669 862.584L75.669 866.384L74.111 866.384L74.111 857.074L75.669 857.074L75.669 860.874L88 860.874L88 862.584ZM88 855.086L74.13 851.476L74.13 849.177L88 845.586L88 847.315L84.314 848.227L84.314 852.426L88 853.338L88 855.086ZM82.87 852.084L82.87 848.588L78.595 849.652C77.7843 849.855 77.1067 850.013 76.562 850.127C76.0173 850.241 75.6627 850.311 75.498 850.336C75.6627 850.362 76.0173 850.431 76.562 850.545C77.1067 850.659 77.778 850.818 78.576 851.02L82.87 852.084ZM88.19 838.868C88.19 839.704 88.0317 840.432 87.715 841.053C87.3983 841.661 86.9423 842.136 86.347 842.478C85.739 842.807 85.0233 842.972 84.2 842.972L77.93 842.972C77.094 842.972 76.3783 842.807 75.783 842.478C75.1877 842.136 74.7317 841.661 74.415 841.053C74.0983 840.432 73.94 839.704 73.94 838.868C73.94 838.032 74.1047 837.31 74.434 836.702C74.7507 836.094 75.2067 835.625 75.802 835.296C76.3973 834.967 77.1067 834.802 77.93 834.802L77.93 836.512C77.1447 836.512 76.543 836.721 76.125 837.139C75.6943 837.544 75.479 838.121 75.479 838.868C75.479 839.615 75.688 840.204 76.106 840.635C76.524 841.053 77.1257 841.262 77.911 841.262L84.2 841.262C84.9853 841.262 85.5933 841.053 86.024 840.635C86.442 840.204 86.651 839.615 86.651 838.868C86.651 838.121 86.442 837.544 86.024 837.139C85.5933 836.721 84.9853 836.512 84.2 836.512L84.2 834.802C85.0107 834.802 85.72 834.967 86.328 835.296C86.9233 835.625 87.3857 836.094 87.715 836.702C88.0317 837.31 88.19 838.032 88.19 838.868ZM88 828.406L75.669 828.406L75.669 832.206L74.111 832.206L74.111 822.896L75.669 822.896L75.669 826.696L88 826.696L88 828.406Z" fill="white"/>
<path d="M490 218L1535 218" stroke="#6A6A6A" stroke-width="20" stroke-linecap="round"/>
<path d="M490 218L1425 218" stroke="white" stroke-width="20" stroke-linecap="round"/>
<path d="M497.162 186V161.18H500.222V171.788H508.178V161.18H511.238V186H508.178V174.576H500.222V186H497.162ZM523.057 186V163.934H516.257V161.146H532.917V163.934H526.117V186H523.057ZM537.357 186V161.18H541.369L543.953 169.204C544.203 169.929 544.429 170.655 544.633 171.38C544.837 172.083 544.985 172.627 545.075 173.012C545.189 172.627 545.336 172.083 545.517 171.38C545.699 170.655 545.903 169.918 546.129 169.17L548.577 161.18H552.589V186H549.597V176.99C549.597 175.993 549.631 174.859 549.699 173.59C549.767 172.321 549.858 171.029 549.971 169.714C550.085 168.377 550.198 167.107 550.311 165.906C550.447 164.682 550.561 163.617 550.651 162.71L546.639 175.12H543.409L539.363 162.71C539.477 163.594 539.59 164.625 539.703 165.804C539.817 166.96 539.919 168.195 540.009 169.51C540.1 170.802 540.179 172.094 540.247 173.386C540.315 174.678 540.349 175.879 540.349 176.99V186H537.357ZM559.07 186V161.18H562.13V183.212H573.35V186H559.07Z" fill="white"/>
<path d="M504.336 274.34C502.84 274.34 501.537 274.057 500.426 273.49C499.338 272.923 498.488 272.107 497.876 271.042C497.287 269.954 496.992 268.673 496.992 267.2V255.98C496.992 254.484 497.287 253.203 497.876 252.138C498.488 251.073 499.338 250.257 500.426 249.69C501.537 249.123 502.84 248.84 504.336 248.84C505.832 248.84 507.124 249.135 508.212 249.724C509.3 250.291 510.139 251.107 510.728 252.172C511.317 253.237 511.612 254.507 511.612 255.98H508.552C508.552 254.575 508.178 253.498 507.43 252.75C506.705 251.979 505.673 251.594 504.336 251.594C502.999 251.594 501.945 251.968 501.174 252.716C500.426 253.464 500.052 254.541 500.052 255.946V267.2C500.052 268.605 500.426 269.693 501.174 270.464C501.945 271.212 502.999 271.586 504.336 271.586C505.673 271.586 506.705 271.212 507.43 270.464C508.178 269.693 508.552 268.605 508.552 267.2H511.612C511.612 268.651 511.317 269.92 510.728 271.008C510.139 272.073 509.3 272.901 508.212 273.49C507.124 274.057 505.832 274.34 504.336 274.34ZM524.723 274.34C523.091 274.34 521.685 274.068 520.507 273.524C519.351 272.98 518.455 272.198 517.821 271.178C517.186 270.158 516.857 268.945 516.835 267.54H519.895C519.895 268.787 520.314 269.773 521.153 270.498C522.014 271.223 523.204 271.586 524.723 271.586C526.151 271.586 527.261 271.235 528.055 270.532C528.871 269.829 529.279 268.855 529.279 267.608C529.279 266.611 529.007 265.738 528.463 264.99C527.941 264.242 527.182 263.721 526.185 263.426L522.819 262.372C521.119 261.851 519.804 260.978 518.875 259.754C517.968 258.53 517.515 257.091 517.515 255.436C517.515 254.099 517.809 252.943 518.399 251.968C519.011 250.971 519.861 250.2 520.949 249.656C522.037 249.089 523.317 248.806 524.791 248.806C526.967 248.806 528.712 249.418 530.027 250.642C531.341 251.843 532.01 253.453 532.033 255.47H528.973C528.973 254.246 528.599 253.294 527.851 252.614C527.125 251.911 526.094 251.56 524.757 251.56C523.442 251.56 522.411 251.877 521.663 252.512C520.937 253.147 520.575 254.031 520.575 255.164C520.575 256.184 520.847 257.068 521.391 257.816C521.935 258.564 522.717 259.097 523.737 259.414L527.137 260.502C528.791 261.023 530.072 261.907 530.979 263.154C531.885 264.401 532.339 265.863 532.339 267.54C532.339 268.9 532.021 270.09 531.387 271.11C530.752 272.13 529.857 272.923 528.701 273.49C527.567 274.057 526.241 274.34 524.723 274.34ZM545.109 274.34C543.477 274.34 542.072 274.068 540.893 273.524C539.737 272.98 538.842 272.198 538.207 271.178C537.573 270.158 537.244 268.945 537.221 267.54H540.281C540.281 268.787 540.701 269.773 541.539 270.498C542.401 271.223 543.591 271.586 545.109 271.586C546.537 271.586 547.648 271.235 548.441 270.532C549.257 269.829 549.665 268.855 549.665 267.608C549.665 266.611 549.393 265.738 548.849 264.99C548.328 264.242 547.569 263.721 546.571 263.426L543.205 262.372C541.505 261.851 540.191 260.978 539.261 259.754C538.355 258.53 537.901 257.091 537.901 255.436C537.901 254.099 538.196 252.943 538.785 251.968C539.397 250.971 540.247 250.2 541.335 249.656C542.423 249.089 543.704 248.806 545.177 248.806C547.353 248.806 549.099 249.418 550.413 250.642C551.728 251.843 552.397 253.453 552.419 255.47H549.359C549.359 254.246 548.985 253.294 548.237 252.614C547.512 251.911 546.481 251.56 545.143 251.56C543.829 251.56 542.797 251.877 542.049 252.512C541.324 253.147 540.961 254.031 540.961 255.164C540.961 256.184 541.233 257.068 541.777 257.816C542.321 258.564 543.103 259.097 544.123 259.414L547.523 260.502C549.178 261.023 550.459 261.907 551.365 263.154C552.272 264.401 552.725 265.863 552.725 267.54C552.725 268.9 552.408 270.09 551.773 271.11C551.139 272.13 550.243 272.923 549.087 273.49C547.954 274.057 546.628 274.34 545.109 274.34Z" fill="white"/>
<path d="M490 306L1535 306" stroke="#6A6A6A" stroke-width="20" stroke-linecap="round"/>
<path d="M490 306L1196 306" stroke="white" stroke-width="20" stroke-linecap="round"/>
<path d="M490 394L1535 394" stroke="#6A6A6A" stroke-width="20" stroke-linecap="round"/>
<path d="M490 394L1476 394" stroke="white" stroke-width="20" stroke-linecap="round"/>
<path d="M499.18 363.34C496.8 363.34 494.93 362.671 493.57 361.334C492.21 359.997 491.53 358.172 491.53 355.86H494.59C494.59 357.379 494.987 358.557 495.78 359.396C496.596 360.212 497.729 360.62 499.18 360.62C500.631 360.62 501.753 360.212 502.546 359.396C503.362 358.557 503.77 357.379 503.77 355.86V340.968H497.82V338.18H506.83V355.86C506.83 358.172 506.139 359.997 504.756 361.334C503.396 362.671 501.537 363.34 499.18 363.34ZM512.087 363L518.547 338.18H522.661L529.087 363H525.993L524.361 356.404H516.847L515.215 363H512.087ZM517.459 353.82H523.715L521.811 346.17C521.448 344.719 521.165 343.507 520.961 342.532C520.757 341.557 520.632 340.923 520.587 340.628C520.541 340.923 520.417 341.557 520.213 342.532C520.009 343.507 519.725 344.708 519.363 346.136L517.459 353.82ZM538.865 363L532.473 338.18H535.635L539.851 355.044C540.146 356.223 540.395 357.322 540.599 358.342C540.803 359.339 540.951 360.099 541.041 360.62C541.132 360.099 541.268 359.339 541.449 358.342C541.653 357.322 541.903 356.223 542.197 355.044L546.379 338.18H549.473L543.047 363H538.865ZM552.86 363L559.32 338.18H563.434L569.86 363H566.766L565.134 356.404H557.62L555.988 363H552.86ZM558.232 353.82H564.488L562.584 346.17C562.221 344.719 561.938 343.507 561.734 342.532C561.53 341.557 561.405 340.923 561.36 340.628C561.315 340.923 561.19 341.557 560.986 342.532C560.782 343.507 560.499 344.708 560.136 346.136L558.232 353.82ZM581.883 363.34C580.251 363.34 578.846 363.068 577.667 362.524C576.511 361.98 575.616 361.198 574.981 360.178C574.346 359.158 574.018 357.945 573.995 356.54H577.055C577.055 357.787 577.474 358.773 578.313 359.498C579.174 360.223 580.364 360.586 581.883 360.586C583.311 360.586 584.422 360.235 585.215 359.532C586.031 358.829 586.439 357.855 586.439 356.608C586.439 355.611 586.167 354.738 585.623 353.99C585.102 353.242 584.342 352.721 583.345 352.426L579.979 351.372C578.279 350.851 576.964 349.978 576.035 348.754C575.128 347.53 574.675 346.091 574.675 344.436C574.675 343.099 574.97 341.943 575.559 340.968C576.171 339.971 577.021 339.2 578.109 338.656C579.197 338.089 580.478 337.806 581.951 337.806C584.127 337.806 585.872 338.418 587.187 339.642C588.502 340.843 589.17 342.453 589.193 344.47H586.133C586.133 343.246 585.759 342.294 585.011 341.614C584.286 340.911 583.254 340.56 581.917 340.56C580.602 340.56 579.571 340.877 578.823 341.512C578.098 342.147 577.735 343.031 577.735 344.164C577.735 345.184 578.007 346.068 578.551 346.816C579.095 347.564 579.877 348.097 580.897 348.414L584.297 349.502C585.952 350.023 587.232 350.907 588.139 352.154C589.046 353.401 589.499 354.863 589.499 356.54C589.499 357.9 589.182 359.09 588.547 360.11C587.912 361.13 587.017 361.923 585.861 362.49C584.728 363.057 583.402 363.34 581.883 363.34ZM602.27 363.34C600.774 363.34 599.47 363.057 598.36 362.49C597.272 361.923 596.422 361.107 595.81 360.042C595.22 358.954 594.926 357.673 594.926 356.2V344.98C594.926 343.484 595.22 342.203 595.81 341.138C596.422 340.073 597.272 339.257 598.36 338.69C599.47 338.123 600.774 337.84 602.27 337.84C603.766 337.84 605.058 338.135 606.146 338.724C607.234 339.291 608.072 340.107 608.662 341.172C609.251 342.237 609.546 343.507 609.546 344.98H606.486C606.486 343.575 606.112 342.498 605.364 341.75C604.638 340.979 603.607 340.594 602.27 340.594C600.932 340.594 599.878 340.968 599.108 341.716C598.36 342.464 597.986 343.541 597.986 344.946V356.2C597.986 357.605 598.36 358.693 599.108 359.464C599.878 360.212 600.932 360.586 602.27 360.586C603.607 360.586 604.638 360.212 605.364 359.464C606.112 358.693 606.486 357.605 606.486 356.2H609.546C609.546 357.651 609.251 358.92 608.662 360.008C608.072 361.073 607.234 361.901 606.146 362.49C605.058 363.057 603.766 363.34 602.27 363.34ZM615.448 363V338.18H623.132C624.606 338.18 625.898 338.486 627.008 339.098C628.119 339.687 628.98 340.515 629.592 341.58C630.204 342.645 630.51 343.892 630.51 345.32C630.51 346.997 630.068 348.437 629.184 349.638C628.323 350.839 627.144 351.667 625.648 352.12L630.85 363H627.246L622.486 352.46H618.508V363H615.448ZM618.508 349.706H623.132C624.402 349.706 625.422 349.309 626.192 348.516C626.963 347.7 627.348 346.635 627.348 345.32C627.348 343.983 626.963 342.917 626.192 342.124C625.422 341.331 624.402 340.934 623.132 340.934H618.508V349.706ZM636.277 363V360.212H641.343V340.968H636.277V338.18H649.537V340.968H644.471V360.212H649.537V363H636.277ZM656.222 363V338.18H664.212C665.753 338.18 667.09 338.486 668.224 339.098C669.357 339.687 670.23 340.526 670.842 341.614C671.476 342.702 671.794 343.994 671.794 345.49C671.794 346.963 671.476 348.255 670.842 349.366C670.23 350.454 669.357 351.304 668.224 351.916C667.09 352.505 665.753 352.8 664.212 352.8H659.282V363H656.222ZM659.282 350.046H664.212C665.549 350.046 666.614 349.638 667.408 348.822C668.224 347.983 668.632 346.873 668.632 345.49C668.632 344.085 668.224 342.974 667.408 342.158C666.614 341.342 665.549 340.934 664.212 340.934H659.282V350.046ZM682.15 363V340.934H675.35V338.146H692.01V340.934H685.21V363H682.15Z" fill="white"/>
<path d="M496 484L1541 484" stroke="#6A6A6A" stroke-width="20" stroke-linecap="round"/>
<path d="M496 484L1166 484" stroke="white" stroke-width="20" stroke-linecap="round"/>
<path d="M499.06 451V426.18H503.14L510.722 447.43C510.677 446.863 510.62 446.172 510.552 445.356C510.507 444.517 510.461 443.645 510.416 442.738C510.393 441.809 510.382 440.936 510.382 440.12V426.18H513.34V451H509.26L501.712 429.75C501.757 430.294 501.803 430.985 501.848 431.824C501.893 432.64 501.927 433.513 501.95 434.442C501.995 435.349 502.018 436.221 502.018 437.06V451H499.06ZM526.587 451.34C525.091 451.34 523.799 451.057 522.711 450.49C521.645 449.923 520.818 449.107 520.229 448.042C519.662 446.954 519.379 445.673 519.379 444.2V432.98C519.379 431.484 519.662 430.203 520.229 429.138C520.818 428.073 521.645 427.257 522.711 426.69C523.799 426.123 525.091 425.84 526.587 425.84C528.083 425.84 529.363 426.123 530.429 426.69C531.517 427.257 532.344 428.073 532.911 429.138C533.5 430.203 533.795 431.473 533.795 432.946V444.2C533.795 445.673 533.5 446.954 532.911 448.042C532.344 449.107 531.517 449.923 530.429 450.49C529.363 451.057 528.083 451.34 526.587 451.34ZM526.587 448.586C527.924 448.586 528.944 448.212 529.647 447.464C530.372 446.693 530.735 445.605 530.735 444.2V432.98C530.735 431.575 530.372 430.498 529.647 429.75C528.944 428.979 527.924 428.594 526.587 428.594C525.272 428.594 524.252 428.979 523.527 429.75C522.801 430.498 522.439 431.575 522.439 432.98V444.2C522.439 445.605 522.801 446.693 523.527 447.464C524.252 448.212 525.272 448.586 526.587 448.586ZM539.901 451V426.18H546.327C547.937 426.18 549.319 426.486 550.475 427.098C551.654 427.71 552.561 428.571 553.195 429.682C553.853 430.793 554.181 432.107 554.181 433.626V443.52C554.181 445.039 553.853 446.365 553.195 447.498C552.561 448.609 551.654 449.47 550.475 450.082C549.319 450.694 547.937 451 546.327 451H539.901ZM542.961 448.28H546.327C547.823 448.28 548.991 447.861 549.829 447.022C550.691 446.183 551.121 445.016 551.121 443.52V433.626C551.121 432.153 550.691 430.997 549.829 430.158C548.991 429.319 547.823 428.9 546.327 428.9H542.961V448.28ZM560.56 451V426.18H574.84V428.968H563.586V436.652H573.65V439.406H563.586V448.212H574.84V451H560.56ZM587.747 451.34C586.886 451.34 586.194 451.091 585.673 450.592C585.174 450.093 584.925 449.425 584.925 448.586C584.925 447.702 585.174 446.999 585.673 446.478C586.194 445.957 586.886 445.696 587.747 445.696C588.608 445.696 589.288 445.957 589.787 446.478C590.308 446.999 590.569 447.702 590.569 448.586C590.569 449.425 590.308 450.093 589.787 450.592C589.288 451.091 588.608 451.34 587.747 451.34ZM607.114 451.34C604.734 451.34 602.864 450.671 601.504 449.334C600.144 447.997 599.464 446.172 599.464 443.86H602.524C602.524 445.379 602.92 446.557 603.714 447.396C604.53 448.212 605.663 448.62 607.114 448.62C608.564 448.62 609.686 448.212 610.48 447.396C611.296 446.557 611.704 445.379 611.704 443.86V428.968H605.754V426.18H614.764V443.86C614.764 446.172 614.072 447.997 612.69 449.334C611.33 450.671 609.471 451.34 607.114 451.34ZM628.656 451.34C627.024 451.34 625.619 451.068 624.44 450.524C623.284 449.98 622.389 449.198 621.754 448.178C621.12 447.158 620.791 445.945 620.768 444.54H623.828C623.828 445.787 624.248 446.773 625.086 447.498C625.948 448.223 627.138 448.586 628.656 448.586C630.084 448.586 631.195 448.235 631.988 447.532C632.804 446.829 633.212 445.855 633.212 444.608C633.212 443.611 632.94 442.738 632.396 441.99C631.875 441.242 631.116 440.721 630.118 440.426L626.752 439.372C625.052 438.851 623.738 437.978 622.808 436.754C621.902 435.53 621.448 434.091 621.448 432.436C621.448 431.099 621.743 429.943 622.332 428.968C622.944 427.971 623.794 427.2 624.882 426.656C625.97 426.089 627.251 425.806 628.724 425.806C630.9 425.806 632.646 426.418 633.96 427.642C635.275 428.843 635.944 430.453 635.966 432.47H632.906C632.906 431.246 632.532 430.294 631.784 429.614C631.059 428.911 630.028 428.56 628.69 428.56C627.376 428.56 626.344 428.877 625.596 429.512C624.871 430.147 624.508 431.031 624.508 432.164C624.508 433.184 624.78 434.068 625.324 434.816C625.868 435.564 626.65 436.097 627.67 436.414L631.07 437.502C632.725 438.023 634.006 438.907 634.912 440.154C635.819 441.401 636.272 442.863 636.272 444.54C636.272 445.9 635.955 447.09 635.32 448.11C634.686 449.13 633.79 449.923 632.634 450.49C631.501 451.057 630.175 451.34 628.656 451.34Z" fill="white"/>
<path d="M490 572L1535 572" stroke="#6A6A6A" stroke-width="20" stroke-linecap="round"/>
<path d="M490 572H836" stroke="white" stroke-width="20" stroke-linecap="round"/>
<path d="M505.18 540.34C502.8 540.34 500.93 539.671 499.57 538.334C498.21 536.997 497.53 535.172 497.53 532.86H500.59C500.59 534.379 500.987 535.557 501.78 536.396C502.596 537.212 503.729 537.62 505.18 537.62C506.631 537.62 507.753 537.212 508.546 536.396C509.362 535.557 509.77 534.379 509.77 532.86V517.968H503.82V515.18H512.83V532.86C512.83 535.172 512.139 536.997 510.756 538.334C509.396 539.671 507.537 540.34 505.18 540.34ZM518.087 540L524.547 515.18H528.661L535.087 540H531.993L530.361 533.404H522.847L521.215 540H518.087ZM523.459 530.82H529.715L527.811 523.17C527.448 521.719 527.165 520.507 526.961 519.532C526.757 518.557 526.632 517.923 526.587 517.628C526.541 517.923 526.417 518.557 526.213 519.532C526.009 520.507 525.725 521.708 525.363 523.136L523.459 530.82ZM544.865 540L538.473 515.18H541.635L545.851 532.044C546.146 533.223 546.395 534.322 546.599 535.342C546.803 536.339 546.951 537.099 547.041 537.62C547.132 537.099 547.268 536.339 547.449 535.342C547.653 534.322 547.903 533.223 548.197 532.044L552.379 515.18H555.473L549.047 540H544.865ZM558.86 540L565.32 515.18H569.434L575.86 540H572.766L571.134 533.404H563.62L561.988 540H558.86ZM564.232 530.82H570.488L568.584 523.17C568.221 521.719 567.938 520.507 567.734 519.532C567.53 518.557 567.405 517.923 567.36 517.628C567.315 517.923 567.19 518.557 566.986 519.532C566.782 520.507 566.499 521.708 566.136 523.136L564.232 530.82Z" fill="white"/>
<path d="M490 660L1535 660" stroke="#6A6A6A" stroke-width="20" stroke-linecap="round"/>
<path d="M490 660H590" stroke="white" stroke-width="20" stroke-linecap="round"/>
<path d="M499.128 628V603.18H507.118C508.659 603.18 509.997 603.486 511.13 604.098C512.263 604.687 513.136 605.526 513.748 606.614C514.383 607.702 514.7 608.994 514.7 610.49C514.7 611.963 514.383 613.255 513.748 614.366C513.136 615.454 512.263 616.304 511.13 616.916C509.997 617.505 508.659 617.8 507.118 617.8H502.188V628H499.128ZM502.188 615.046H507.118C508.455 615.046 509.521 614.638 510.314 613.822C511.13 612.983 511.538 611.873 511.538 610.49C511.538 609.085 511.13 607.974 510.314 607.158C509.521 606.342 508.455 605.934 507.118 605.934H502.188V615.046ZM525.057 628V618.718L517.577 603.18H520.739L525.669 613.38C525.941 613.947 526.156 614.434 526.315 614.842C526.473 615.227 526.575 615.511 526.621 615.692C526.666 615.511 526.768 615.227 526.927 614.842C527.108 614.434 527.335 613.947 527.607 613.38L532.435 603.18H535.597L528.117 618.718V628H525.057ZM545.443 628V605.934H538.643V603.146H555.303V605.934H548.503V628H545.443ZM560.322 628V603.18H563.382V613.788H571.338V603.18H574.398V628H571.338V616.576H563.382V628H560.322ZM587.747 628.34C586.251 628.34 584.959 628.057 583.871 627.49C582.806 626.923 581.978 626.107 581.389 625.042C580.822 623.954 580.539 622.673 580.539 621.2V609.98C580.539 608.484 580.822 607.203 581.389 606.138C581.978 605.073 582.806 604.257 583.871 603.69C584.959 603.123 586.251 602.84 587.747 602.84C589.243 602.84 590.524 603.123 591.589 603.69C592.677 604.257 593.504 605.073 594.071 606.138C594.66 607.203 594.955 608.473 594.955 609.946V621.2C594.955 622.673 594.66 623.954 594.071 625.042C593.504 626.107 592.677 626.923 591.589 627.49C590.524 628.057 589.243 628.34 587.747 628.34ZM587.747 625.586C589.084 625.586 590.104 625.212 590.807 624.464C591.532 623.693 591.895 622.605 591.895 621.2V609.98C591.895 608.575 591.532 607.498 590.807 606.75C590.104 605.979 589.084 605.594 587.747 605.594C586.432 605.594 585.412 605.979 584.687 606.75C583.962 607.498 583.599 608.575 583.599 609.98V621.2C583.599 622.605 583.962 623.693 584.687 624.464C585.412 625.212 586.432 625.586 587.747 625.586ZM600.994 628V603.18H605.074L612.656 624.43C612.61 623.863 612.554 623.172 612.486 622.356C612.44 621.517 612.395 620.645 612.35 619.738C612.327 618.809 612.316 617.936 612.316 617.12V603.18H615.274V628H611.194L603.646 606.75C603.691 607.294 603.736 607.985 603.782 608.824C603.827 609.64 603.861 610.513 603.884 611.442C603.929 612.349 603.952 613.221 603.952 614.06V628H600.994Z" fill="white"/>
<path d="M490 749L1535 749" stroke="#6A6A6A" stroke-width="20" stroke-linecap="round"/>
<path d="M490 749H843" stroke="white" stroke-width="20" stroke-linecap="round"/>
<path d="M504.336 717.34C502.84 717.34 501.537 717.057 500.426 716.49C499.338 715.923 498.488 715.107 497.876 714.042C497.287 712.954 496.992 711.673 496.992 710.2V698.98C496.992 697.484 497.287 696.203 497.876 695.138C498.488 694.073 499.338 693.257 500.426 692.69C501.537 692.123 502.84 691.84 504.336 691.84C505.832 691.84 507.124 692.135 508.212 692.724C509.3 693.291 510.139 694.107 510.728 695.172C511.317 696.237 511.612 697.507 511.612 698.98H508.552C508.552 697.575 508.178 696.498 507.43 695.75C506.705 694.979 505.673 694.594 504.336 694.594C502.999 694.594 501.945 694.968 501.174 695.716C500.426 696.464 500.052 697.541 500.052 698.946V710.2C500.052 711.605 500.426 712.693 501.174 713.464C501.945 714.212 502.999 714.586 504.336 714.586C505.673 714.586 506.705 714.212 507.43 713.464C508.178 712.693 508.552 711.605 508.552 710.2H511.612C511.612 711.651 511.317 712.92 510.728 714.008C510.139 715.073 509.3 715.901 508.212 716.49C507.124 717.057 505.832 717.34 504.336 717.34Z" fill="white"/>
<path d="M490 837L1535 837" stroke="#6A6A6A" stroke-width="20" stroke-linecap="round"/>
<path d="M490 837H759" stroke="white" stroke-width="20" stroke-linecap="round"/>
<path d="M504.336 805.34C502.84 805.34 501.537 805.057 500.426 804.49C499.338 803.923 498.488 803.107 497.876 802.042C497.287 800.954 496.992 799.673 496.992 798.2V786.98C496.992 785.484 497.287 784.203 497.876 783.138C498.488 782.073 499.338 781.257 500.426 780.69C501.537 780.123 502.84 779.84 504.336 779.84C505.832 779.84 507.124 780.135 508.212 780.724C509.3 781.291 510.139 782.107 510.728 783.172C511.317 784.237 511.612 785.507 511.612 786.98H508.552C508.552 785.575 508.178 784.498 507.43 783.75C506.705 782.979 505.673 782.594 504.336 782.594C502.999 782.594 501.945 782.968 501.174 783.716C500.426 784.464 500.052 785.541 500.052 786.946V798.2C500.052 799.605 500.426 800.693 501.174 801.464C501.945 802.212 502.999 802.586 504.336 802.586C505.673 802.586 506.705 802.212 507.43 801.464C508.178 800.693 508.552 799.605 508.552 798.2H511.612C511.612 799.651 511.317 800.92 510.728 802.008C510.139 803.073 509.3 803.901 508.212 804.49C507.124 805.057 505.832 805.34 504.336 805.34ZM517.209 805L518.467 798.2H515.577V795.99H518.875L520.099 789.19H516.767V786.98H520.507L521.765 780.18H524.145L522.887 786.98H528.327L529.585 780.18H531.965L530.707 786.98H533.597V789.19H530.299L529.075 795.99H532.407V798.2H528.667L527.409 805H525.029L526.287 798.2H520.847L519.589 805H517.209ZM521.255 795.99H526.695L527.919 789.19H522.479L521.255 795.99ZM571.65 809.08C568.431 808.287 565.927 806.723 564.136 804.388C562.345 802.053 561.45 799.197 561.45 795.82V789.7C561.45 787.479 561.858 785.473 562.674 783.682C563.513 781.869 564.691 780.339 566.21 779.092C567.751 777.845 569.565 776.961 571.65 776.44V779.33C570.199 779.67 568.941 780.327 567.876 781.302C566.811 782.254 565.983 783.444 565.394 784.872C564.805 786.3 564.51 787.909 564.51 789.7V795.82C564.51 797.565 564.793 799.152 565.36 800.58C565.949 802.008 566.777 803.198 567.842 804.15C568.93 805.079 570.199 805.714 571.65 806.054V809.08ZM585.747 805.34C583.435 805.34 581.667 804.705 580.443 803.436C579.219 802.144 578.607 800.399 578.607 798.2V780.18H581.667V798.2C581.667 799.56 581.996 800.637 582.653 801.43C583.333 802.223 584.364 802.62 585.747 802.62C587.107 802.62 588.127 802.223 588.807 801.43C589.487 800.637 589.827 799.56 589.827 798.2V780.18H592.887V798.2C592.887 800.421 592.275 802.167 591.051 803.436C589.85 804.705 588.082 805.34 585.747 805.34ZM598.994 805V780.18H603.074L610.656 801.43C610.61 800.863 610.554 800.172 610.486 799.356C610.44 798.517 610.395 797.645 610.35 796.738C610.327 795.809 610.316 794.936 610.316 794.12V780.18H613.274V805H609.194L601.646 783.75C601.691 784.294 601.736 784.985 601.782 785.824C601.827 786.64 601.861 787.513 601.884 788.442C601.929 789.349 601.952 790.221 601.952 791.06V805H598.994ZM619.89 805V802.212H624.956V782.968H619.89V780.18H633.15V782.968H628.084V802.212H633.15V805H619.89ZM645.377 805V782.934H638.577V780.146H655.237V782.934H648.437V805H645.377ZM665.764 805V795.718L658.284 780.18H661.446L666.376 790.38C666.648 790.947 666.863 791.434 667.022 791.842C667.18 792.227 667.282 792.511 667.328 792.692C667.373 792.511 667.475 792.227 667.634 791.842C667.815 791.434 668.042 790.947 668.314 790.38L673.142 780.18H676.304L668.824 795.718V805H665.764ZM681.39 809.08V806.054C682.864 805.714 684.133 805.079 685.198 804.15C686.264 803.198 687.08 802.008 687.646 800.58C688.236 799.152 688.53 797.565 688.53 795.82V789.7C688.53 787.909 688.236 786.3 687.646 784.872C687.057 783.444 686.23 782.254 685.164 781.302C684.099 780.327 682.841 779.67 681.39 779.33V776.44C683.498 776.961 685.312 777.845 686.83 779.092C688.349 780.339 689.516 781.869 690.332 783.682C691.171 785.473 691.59 787.479 691.59 789.7V795.82C691.59 799.197 690.695 802.053 688.904 804.388C687.114 806.723 684.609 808.287 681.39 809.08Z" fill="white"/>
<path d="M490 925L1535 925" stroke="#6A6A6A" stroke-width="20" stroke-linecap="round"/>
<path d="M490 925H1273.5" stroke="white" stroke-width="20" stroke-linecap="round"/>
<path d="M497.128 894V869.18H504.812C506.285 869.18 507.577 869.486 508.688 870.098C509.799 870.687 510.66 871.515 511.272 872.58C511.884 873.645 512.19 874.892 512.19 876.32C512.19 877.997 511.748 879.437 510.864 880.638C510.003 881.839 508.824 882.667 507.328 883.12L512.53 894H508.926L504.166 883.46H500.188V894H497.128ZM500.188 880.706H504.812C506.081 880.706 507.101 880.309 507.872 879.516C508.643 878.7 509.028 877.635 509.028 876.32C509.028 874.983 508.643 873.917 507.872 873.124C507.101 872.331 506.081 871.934 504.812 871.934H500.188V880.706ZM517.787 894V869.18H532.067V871.968H520.813V879.652H530.877V882.406H520.813V891.212H532.067V894H517.787ZM536.473 894L542.933 869.18H547.047L553.473 894H550.379L548.747 887.404H541.233L539.601 894H536.473ZM541.845 884.82H548.101L546.197 877.17C545.835 875.719 545.551 874.507 545.347 873.532C545.143 872.557 545.019 871.923 544.973 871.628C544.928 871.923 544.803 872.557 544.599 873.532C544.395 874.507 544.112 875.708 543.749 877.136L541.845 884.82ZM565.496 894.34C564 894.34 562.697 894.057 561.586 893.49C560.498 892.923 559.648 892.107 559.036 891.042C558.447 889.954 558.152 888.673 558.152 887.2V875.98C558.152 874.484 558.447 873.203 559.036 872.138C559.648 871.073 560.498 870.257 561.586 869.69C562.697 869.123 564 868.84 565.496 868.84C566.992 868.84 568.284 869.135 569.372 869.724C570.46 870.291 571.299 871.107 571.888 872.172C572.477 873.237 572.772 874.507 572.772 875.98H569.712C569.712 874.575 569.338 873.498 568.59 872.75C567.865 871.979 566.833 871.594 565.496 871.594C564.159 871.594 563.105 871.968 562.334 872.716C561.586 873.464 561.212 874.541 561.212 875.946V887.2C561.212 888.605 561.586 889.693 562.334 890.464C563.105 891.212 564.159 891.586 565.496 891.586C566.833 891.586 567.865 891.212 568.59 890.464C569.338 889.693 569.712 888.605 569.712 887.2H572.772C572.772 888.651 572.477 889.92 571.888 891.008C571.299 892.073 570.46 892.901 569.372 893.49C568.284 894.057 566.992 894.34 565.496 894.34ZM584.217 894V871.934H577.417V869.146H594.077V871.934H587.277V894H584.217ZM606.134 894.34C605.272 894.34 604.581 894.091 604.06 893.592C603.561 893.093 603.312 892.425 603.312 891.586C603.312 890.702 603.561 889.999 604.06 889.478C604.581 888.957 605.272 888.696 606.134 888.696C606.995 888.696 607.675 888.957 608.174 889.478C608.695 889.999 608.956 890.702 608.956 891.586C608.956 892.425 608.695 893.093 608.174 893.592C607.675 894.091 606.995 894.34 606.134 894.34ZM625.5 894.34C623.12 894.34 621.25 893.671 619.89 892.334C618.53 890.997 617.85 889.172 617.85 886.86H620.91C620.91 888.379 621.307 889.557 622.1 890.396C622.916 891.212 624.05 891.62 625.5 891.62C626.951 891.62 628.073 891.212 628.866 890.396C629.682 889.557 630.09 888.379 630.09 886.86V871.968H624.14V869.18H633.15V886.86C633.15 889.172 632.459 890.997 631.076 892.334C629.716 893.671 627.858 894.34 625.5 894.34ZM647.043 894.34C645.411 894.34 644.006 894.068 642.827 893.524C641.671 892.98 640.776 892.198 640.141 891.178C639.506 890.158 639.178 888.945 639.155 887.54H642.215C642.215 888.787 642.634 889.773 643.473 890.498C644.334 891.223 645.524 891.586 647.043 891.586C648.471 891.586 649.582 891.235 650.375 890.532C651.191 889.829 651.599 888.855 651.599 887.608C651.599 886.611 651.327 885.738 650.783 884.99C650.262 884.242 649.502 883.721 648.505 883.426L645.139 882.372C643.439 881.851 642.124 880.978 641.195 879.754C640.288 878.53 639.835 877.091 639.835 875.436C639.835 874.099 640.13 872.943 640.719 871.968C641.331 870.971 642.181 870.2 643.269 869.656C644.357 869.089 645.638 868.806 647.111 868.806C649.287 868.806 651.032 869.418 652.347 870.642C653.662 871.843 654.33 873.453 654.353 875.47H651.293C651.293 874.246 650.919 873.294 650.171 872.614C649.446 871.911 648.414 871.56 647.077 871.56C645.762 871.56 644.731 871.877 643.983 872.512C643.258 873.147 642.895 874.031 642.895 875.164C642.895 876.184 643.167 877.068 643.711 877.816C644.255 878.564 645.037 879.097 646.057 879.414L649.457 880.502C651.112 881.023 652.392 881.907 653.299 883.154C654.206 884.401 654.659 885.863 654.659 887.54C654.659 888.9 654.342 890.09 653.707 891.11C653.072 892.13 652.177 892.923 651.021 893.49C649.888 894.057 648.562 894.34 647.043 894.34Z" fill="white"/>
</svg>
